<?xml version="1.0" standalone="no"?>
<!DOCTYPE svg PUBLIC "-//W3C//DTD SVG 20010904//EN"
 "http://www.w3.org/TR/2001/REC-SVG-20010904/DTD/svg10.dtd">
<svg version="1.0" xmlns="http://www.w3.org/2000/svg"
 width="512.000000pt" height="512.000000pt" viewBox="0 0 512.000000 512.000000"
 preserveAspectRatio="xMidYMid meet">
<metadata>
Created by potrace 1.11, written by Peter Selinger 2001-2013
</metadata>
<g transform="translate(0.000000,512.000000) scale(0.100000,-0.100000)"
fill="#000000" stroke="none">
<path d="M2378 5115 c-2 -1 -39 -5 -82 -9 -44 -4 -82 -9 -85 -11 -4 -2 -34 -7
-66 -10 -109 -13 -387 -87 -490 -130 -16 -7 -55 -23 -85 -35 -220 -89 -510
-269 -680 -420 -145 -130 -276 -269 -362 -385 -4 -5 -18 -23 -31 -40 -65 -82
-185 -281 -241 -400 -84 -176 -168 -416 -190 -538 -2 -15 -7 -35 -10 -45 -4
-15 -8 -36 -21 -117 -2 -11 -6 -36 -9 -55 -39 -232 -26 -615 29 -885 204 -984
999 -1781 1975 -1979 110 -22 129 -25 195 -32 33 -4 64 -9 69 -12 15 -9 418
-10 496 -1 144 16 171 20 240 34 14 2 37 7 52 9 15 3 72 16 127 30 606 157
1141 543 1494 1078 73 110 170 292 220 413 57 137 133 390 151 505 3 19 8 46
11 60 34 165 41 683 10 772 -2 7 -6 31 -9 53 -17 152 -97 429 -175 609 -96
221 -249 470 -382 621 -148 169 -242 261 -374 367 -75 59 -260 188 -272 188
-3 0 -14 6 -22 14 -33 29 -302 156 -423 200 -117 42 -314 97 -398 110 -193 32
-269 39 -452 41 -113 2 -208 2 -210 0z"/>
</g>
</svg>
