<?xml version="1.0" standalone="no"?>
<!DOCTYPE svg PUBLIC "-//W3C//DTD SVG 20010904//EN"
 "http://www.w3.org/TR/2001/REC-SVG-20010904/DTD/svg10.dtd">
<svg version="1.0" xmlns="http://www.w3.org/2000/svg"
 width="600.000000pt" height="600.000000pt" viewBox="0 0 600.000000 600.000000"
 preserveAspectRatio="xMidYMid meet">
<metadata>
Created by potrace 1.14, written by Peter Selinger 2001-2017
</metadata>
<g transform="translate(0.000000,600.000000) scale(0.100000,-0.100000)"
fill="#000000" stroke="none">
<path d="M528 5964 c4 -35 3 -37 -21 -32 -17 3 -28 0 -31 -9 -10 -26 -7 -30
19 -25 18 3 27 -1 32 -14 3 -11 11 -22 17 -26 6 -4 5 -12 -3 -22 -7 -8 -10
-21 -6 -28 4 -7 -6 2 -22 20 l-29 33 -38 -30 c-21 -17 -47 -31 -58 -31 -15 0
-18 -5 -13 -21 6 -18 4 -20 -17 -13 -25 8 -29 8 -70 6 -21 -2 -28 -7 -28 -22
0 -25 -15 -25 -70 1 -30 15 -45 18 -48 10 -3 -8 -16 -9 -39 -5 -32 6 -35 5
-33 -17 5 -60 1 -65 -24 -30 -18 23 -26 29 -32 19 -4 -7 -10 -85 -12 -173 l-3
-161 24 -13 c27 -14 38 -50 30 -92 -3 -15 0 -36 6 -46 7 -14 7 -23 -2 -32 -9
-9 -9 -16 1 -31 14 -23 16 -70 3 -70 -5 0 -11 8 -13 18 -3 14 -6 14 -17 -6 -9
-18 -10 -27 -1 -37 14 -17 4 -36 -15 -29 -12 5 -14 -66 -15 -505 0 -390 3
-515 12 -531 10 -15 10 -22 0 -32 -9 -9 -12 -83 -12 -284 l0 -271 25 5 c14 2
25 11 25 18 0 8 9 14 19 14 11 0 26 3 35 6 11 4 16 0 16 -14 0 -19 32 -39 127
-77 29 -12 47 -28 58 -51 14 -29 49 -53 61 -41 8 8 -31 67 -48 73 -10 3 -15
11 -12 19 4 9 -3 16 -20 21 -14 3 -26 10 -26 15 0 5 -7 9 -15 9 -21 0 -40 51
-23 61 6 4 20 3 30 -2 10 -6 23 -7 28 -4 12 7 2 33 -13 32 -34 -1 -47 5 -47
21 0 10 4 22 10 28 11 11 2 54 -11 54 -5 0 -9 7 -9 15 0 8 9 15 20 15 11 0 20
-4 20 -10 0 -5 0 -12 0 -15 -1 -21 35 -81 65 -109 19 -18 35 -38 35 -45 0 -21
21 -11 31 16 7 19 6 28 -2 34 -20 12 37 56 79 61 20 3 38 2 40 -2 11 -28 31
-43 48 -36 18 8 18 9 -3 17 -27 10 -30 34 -7 43 20 8 36 -2 31 -17 -4 -12 29
-47 44 -47 4 0 8 -8 8 -17 0 -10 3 -33 7 -50 6 -30 4 -33 -18 -33 -18 0 -24 5
-23 23 0 12 -4 22 -10 22 -5 0 -9 -7 -7 -15 1 -8 3 -26 3 -40 1 -14 8 -33 17
-42 19 -22 58 -23 66 -3 3 9 18 15 34 15 26 0 31 -5 40 -40 7 -28 7 -40 -1
-40 -6 0 -8 -3 -4 -6 3 -3 20 1 38 10 42 21 46 20 51 -8 6 -33 -5 -50 -29 -44
-13 3 -24 -2 -32 -14 -6 -10 -16 -16 -22 -13 -5 4 -16 1 -24 -5 -11 -9 -22 -7
-51 11 -24 14 -33 24 -24 27 8 3 16 0 18 -6 6 -19 32 -14 32 7 0 10 7 24 15
31 8 7 13 15 11 19 -8 12 -64 12 -72 0 -5 -8 -16 0 -35 22 -30 37 -50 34 -30
-4 7 -13 12 -30 11 -38 -4 -27 0 -39 14 -39 7 0 20 -10 28 -22 12 -18 25 -22
69 -22 30 -1 58 -5 62 -11 6 -6 10 -6 14 3 9 22 47 13 64 -16 17 -30 14 -57
-4 -45 -7 4 -18 8 -26 10 -18 2 -64 -44 -56 -57 16 -25 -19 -6 -54 30 -43 44
-51 48 -51 24 0 -12 -4 -14 -12 -7 -34 26 -118 21 -118 -7 0 -13 84 -20 92 -7
5 8 8 6 9 -5 2 -24 3 -27 22 -68 15 -32 17 -33 23 -14 7 26 39 21 66 -9 15
-16 15 -21 3 -33 -18 -19 -40 -18 -60 2 -9 9 -19 14 -22 10 -3 -3 -12 2 -18
11 -13 18 -75 27 -75 12 0 -5 -6 -9 -14 -9 -8 0 -18 -5 -22 -12 -5 -7 0 -9 14
-6 13 4 33 -3 53 -18 18 -13 31 -24 28 -25 -29 -7 -77 -3 -90 8 -22 18 -81 6
-77 -16 4 -20 83 -60 120 -61 23 0 27 4 25 21 -3 29 23 37 30 10 3 -12 9 -21
14 -21 5 0 9 -6 9 -13 0 -8 12 -20 28 -28 36 -18 42 -28 42 -65 0 -23 7 -36
25 -48 22 -15 36 -58 18 -55 -24 4 -51 -4 -72 -20 -20 -16 -21 -19 -7 -24 10
-4 15 -3 11 3 -3 6 -1 10 4 10 6 0 11 -10 11 -22 1 -20 2 -21 10 -6 12 20 51
13 43 -8 -5 -13 -49 -14 -70 -1 -6 4 -27 0 -47 -8 -41 -18 -47 -44 -16 -75 11
-11 20 -26 20 -34 0 -16 -48 -28 -57 -13 -3 6 -1 7 5 3 14 -8 15 3 4 22 -9 14
-84 12 -79 -2 4 -11 15 -18 70 -42 35 -15 39 -15 56 0 10 9 25 14 35 10 11 -4
16 -1 16 10 0 9 7 16 15 16 8 0 19 9 25 20 6 11 26 22 46 26 28 5 40 2 60 -17
14 -13 24 -34 24 -51 0 -25 3 -28 33 -28 57 0 61 13 16 53 -34 31 -39 40 -29
52 15 18 37 19 43 3 3 -9 9 -7 20 6 14 19 15 19 41 -9 36 -39 35 -59 -1 -42
-16 6 -32 16 -36 22 -5 6 -7 1 -5 -10 2 -11 10 -21 18 -21 32 -3 35 -5 21 -13
-10 -6 -10 -13 -2 -28 20 -39 -65 -154 -103 -140 -8 3 -31 -3 -52 -14 -50 -25
-64 -24 -64 4 0 23 -17 47 -33 47 -5 0 -2 -12 8 -26 16 -26 16 -26 -7 -19 -29
9 -30 9 -48 2 -8 -3 -28 -10 -45 -15 -18 -6 -29 -15 -29 -26 1 -12 -7 -16 -31
-16 -18 0 -35 -6 -38 -12 -3 -10 -9 -10 -26 -1 -27 17 -28 17 -34 -9 -4 -12
-9 -19 -13 -15 -4 4 -14 1 -23 -6 -10 -9 -25 -11 -41 -6 -14 4 -20 7 -13 8 6
1 10 9 8 18 -2 10 -4 21 -4 26 -1 4 -10 7 -20 7 -22 0 -64 -36 -74 -63 -6 -15
-15 -17 -55 -14 -27 2 -54 7 -61 12 -10 6 -11 3 -3 -11 9 -18 6 -19 -39 -16
-31 3 -49 0 -49 -7 0 -6 -11 -11 -25 -11 -14 0 -25 -2 -25 -5 0 -11 36 -81 49
-95 13 -13 11 -16 -14 -20 -17 -3 -34 -15 -40 -26 -6 -12 -16 -29 -23 -37 -8
-10 -12 -37 -10 -74 2 -46 6 -57 19 -55 9 1 16 -4 16 -12 0 -8 -3 -15 -6 -14
-18 2 -31 -3 -31 -12 0 -5 15 -10 34 -10 33 0 96 -28 96 -42 0 -4 11 -3 24 2
19 7 31 4 53 -12 45 -34 50 -41 26 -35 -13 3 -25 1 -28 -3 -4 -7 -62 -40 -70
-40 -2 0 -5 7 -8 14 -4 11 -1 13 11 9 11 -4 7 4 -10 21 -27 27 -42 34 -86 35
-13 1 -20 5 -17 11 3 5 -1 10 -9 10 -14 0 -16 -18 -16 -124 0 -90 3 -126 12
-129 10 -4 10 -6 1 -6 -10 -1 -13 -162 -13 -771 l0 -770 2016 0 c1341 0 2013
3 2009 10 -3 5 -2 10 4 10 5 0 12 -4 16 -10 4 -6 368 -9 980 -10 l975 0 0 682
c0 376 -4 678 -8 672 -10 -15 -49 -35 -65 -33 -41 5 -56 -2 -59 -28 -4 -40
-35 -39 -82 1 -38 32 -39 36 -39 97 0 35 1 78 2 94 2 17 1 45 -1 62 -3 26 0
33 13 33 9 0 19 -7 22 -15 4 -8 24 -26 47 -40 22 -14 40 -32 40 -40 0 -8 10
-20 23 -26 12 -7 33 -23 47 -36 13 -14 32 -29 42 -34 17 -9 18 9 18 366 0 327
-2 375 -15 375 -17 0 -20 -16 -4 -25 16 -11 5 -28 -21 -32 -13 -2 -29 -8 -35
-13 -6 -5 -22 -12 -36 -14 -13 -3 -25 -5 -27 -5 -1 -1 2 -9 7 -20 9 -15 3 -24
-29 -50 -22 -18 -40 -40 -40 -51 0 -10 -4 -22 -10 -25 -6 -3 -10 -15 -10 -25
0 -11 -13 -33 -30 -50 l-29 -30 -15 33 c-25 55 -37 103 -30 120 3 10 2 17 -3
17 -9 0 -21 24 -111 225 -19 44 -48 97 -64 117 -15 20 -28 42 -28 48 0 6 -7
22 -16 35 -9 13 -13 29 -10 34 4 6 -6 17 -21 25 -15 8 -62 47 -103 85 -68 64
-74 73 -62 91 17 28 16 30 -16 30 -26 0 -66 27 -116 76 -12 12 -43 31 -69 43
-26 12 -56 30 -67 41 -10 10 -42 29 -70 41 -27 12 -50 25 -50 30 0 4 -30 23
-67 41 -38 18 -83 43 -102 55 -19 13 -44 23 -57 23 -13 0 -33 10 -44 22 l-21
23 28 7 c19 5 32 18 40 37 8 22 18 30 39 33 25 3 29 7 26 31 -2 18 2 27 12 27
9 0 12 7 9 20 -5 17 0 20 26 20 19 0 34 6 37 15 4 8 15 15 25 15 24 0 25 16 2
29 -17 9 -17 11 2 24 52 37 68 56 70 77 1 13 7 26 13 28 7 2 10 -2 6 -11 -4
-12 1 -13 27 -8 39 8 49 27 19 36 -12 4 -25 18 -31 32 -12 32 -12 33 6 33 8 0
22 11 31 25 9 14 20 22 25 20 16 -11 59 7 59 24 0 15 9 17 66 15 36 -2 73 -6
82 -8 10 -3 24 -1 32 5 12 8 8 16 -26 47 -22 20 -43 45 -47 55 -3 9 -15 17
-25 17 -21 0 -42 18 -42 37 0 7 5 13 12 13 6 0 32 10 57 22 l45 22 -27 11 -28
11 24 26 24 26 -23 28 c-29 33 -30 41 -6 48 10 3 22 20 27 38 8 24 18 34 43
40 49 13 38 24 -24 23 -47 0 -58 4 -73 24 -14 18 -23 22 -42 16 -30 -10 -34
-9 -34 12 0 23 -52 28 -72 7 -22 -22 -62 -18 -73 9 -20 46 -60 77 -60 45 0 -9
-3 -9 -12 0 -7 7 -27 12 -45 12 -23 0 -33 5 -33 15 0 8 5 15 12 15 9 0 9 3 1
11 -7 7 -22 7 -52 -2 -37 -11 -43 -10 -55 7 -13 17 -12 20 15 29 17 6 33 15
37 21 16 24 44 32 71 18 24 -13 27 -12 35 6 7 15 4 26 -12 43 -12 13 -22 29
-22 35 0 7 -6 15 -14 18 -8 3 -17 16 -20 30 -5 17 -13 24 -31 24 -14 0 -25 4
-25 9 0 4 47 8 104 7 108 -1 130 5 105 28 -22 21 -85 27 -100 10 -17 -20 -66
-17 -89 6 -20 20 -74 27 -85 11 -6 -11 -63 3 -79 19 -5 5 -16 10 -24 10 -10 0
-10 -3 2 -16 9 -8 16 -22 16 -30 0 -8 5 -14 12 -14 17 0 87 -34 88 -42 0 -5
-4 -8 -10 -8 -5 0 -7 -6 -4 -14 8 -21 -14 -24 -98 -15 -103 12 -122 4 -123
-50 -1 -30 2 -40 12 -37 7 3 15 1 18 -4 4 -6 -1 -10 -9 -10 -18 0 -21 -16 -6
-25 6 -4 5 -12 -4 -20 -8 -8 -12 -24 -9 -35 3 -11 1 -20 -5 -20 -6 0 -13 -8
-15 -17 -3 -10 -5 -1 -6 20 0 20 -5 37 -11 37 -5 0 -10 6 -10 13 0 8 -9 22
-20 32 -25 23 -25 14 0 -35 24 -47 24 -50 4 -50 -11 0 -13 6 -9 19 3 11 1 22
-5 26 -5 3 -10 1 -10 -6 0 -10 -3 -10 -12 -1 -10 10 -10 15 0 21 11 7 11 9 -1
14 -17 6 -42 -39 -26 -48 5 -4 7 -10 4 -15 -3 -5 6 -21 20 -36 14 -15 25 -32
25 -38 -1 -6 -9 -1 -20 12 -34 40 -55 4 -25 -42 8 -12 17 -47 19 -77 2 -30 5
-54 6 -54 1 0 3 -9 4 -20 2 -11 4 -24 6 -30 7 -29 -1 -45 -24 -45 -43 0 -86
21 -86 42 0 15 5 18 20 13 15 -5 20 -2 20 13 0 16 -7 20 -35 19 -19 -1 -41 5
-48 12 -9 11 -9 13 1 7 6 -4 12 -3 12 3 0 5 -8 15 -17 20 -10 6 -14 11 -9 11
5 0 3 7 -4 15 -9 10 -32 15 -77 15 -37 0 -62 4 -58 9 3 5 21 7 40 4 23 -4 35
-2 35 6 0 6 -13 11 -30 11 -16 0 -30 5 -30 11 0 5 3 8 8 6 4 -3 16 -1 27 3 13
5 2 8 -35 8 -47 0 -51 -2 -33 -12 19 -10 16 -11 -28 -11 -33 0 -53 5 -59 15
-5 8 -10 10 -10 5 0 -17 -51 -16 -78 1 -23 15 -24 15 -17 -5 6 -19 4 -20 -19
-11 -14 5 -33 7 -41 4 -8 -4 -15 -1 -15 5 0 6 8 11 18 11 9 0 23 4 30 9 11 7
10 9 -3 14 -9 4 -14 3 -10 -2 9 -15 -128 -10 -143 5 -7 8 -21 15 -30 15 -9 1
-28 3 -42 4 -14 2 -29 -1 -35 -5 -5 -4 -28 -13 -50 -20 -22 -7 -48 -18 -58
-25 -10 -7 -26 -11 -36 -8 -9 2 -23 -3 -30 -11 -19 -22 -34 -20 -28 4 5 18 4
18 -19 3 -13 -8 -24 -19 -24 -24 0 -5 -9 -9 -20 -9 -24 0 -58 -18 -82 -44 -15
-16 -20 -17 -34 -5 -16 13 -16 12 -5 -8 7 -13 8 -23 2 -23 -5 0 -13 9 -16 20
-3 11 -11 20 -17 20 -7 0 -7 -4 -1 -12 21 -27 23 -64 4 -78 -18 -12 -20 -32
-9 -80 2 -10 -12 -18 -42 -26 -25 -7 -47 -13 -50 -14 -13 -4 -213 2 -225 6 -7
3 -11 14 -8 25 3 10 10 16 17 13 6 -3 4 0 -5 8 -9 7 -19 23 -23 36 -4 12 -12
19 -18 16 -7 -5 -9 0 -6 14 4 12 2 22 -4 22 -6 0 -8 11 -6 25 3 15 1 22 -5 18
-6 -4 -8 0 -4 10 3 9 3 16 -1 16 -29 -5 -40 3 -34 23 3 14 1 19 -6 14 -10 -6
-20 1 -45 36 -7 9 -21 18 -32 20 -11 2 -30 14 -42 28 -12 14 -23 20 -23 13 0
-6 5 -15 10 -18 6 -3 10 -12 10 -18 0 -8 -3 -7 -9 2 -5 7 -13 11 -19 7 -5 -3
-9 2 -8 12 1 11 -7 18 -23 20 -15 2 -21 0 -17 -7 10 -15 -4 -14 -23 3 -23 19
-97 36 -109 24 -18 -18 -93 -27 -99 -12 -8 22 -52 -4 -46 -27 4 -14 0 -19 -15
-19 -12 0 -24 5 -28 12 -5 8 -11 6 -19 -5 -16 -23 -62 -39 -71 -26 -3 6 -19 9
-35 7 -19 -3 -29 0 -29 8 0 9 -8 10 -30 4 -16 -5 -39 -6 -50 -3 -12 3 -39 0
-60 -7 -21 -7 -45 -10 -54 -7 -13 5 -12 11 5 47 13 26 17 46 11 53 -5 7 -8 33
-8 59 1 27 -3 50 -9 51 -6 2 -5 9 2 19 10 11 10 17 0 28 -8 9 -9 11 0 6 20
-11 23 10 7 49 -8 20 -13 40 -10 43 4 3 -1 13 -10 23 -9 10 -19 39 -22 64 -2
26 -11 49 -18 52 -22 8 12 71 91 168 101 124 156 176 271 254 55 38 98 74 96
80 -1 7 2 9 8 6 6 -4 25 -1 41 5 23 10 27 15 18 26 -9 11 -8 14 6 14 13 0 15
3 7 13 -8 10 -6 13 8 13 10 0 18 -4 17 -9 -4 -16 63 -18 69 -2 4 8 12 15 20
15 8 0 14 7 14 16 0 8 5 12 10 9 22 -14 8 25 -18 47 -15 13 -36 35 -47 48 -11
14 6 1 38 -28 54 -48 88 -67 71 -41 -5 8 -1 8 14 0 29 -15 35 -14 28 6 -6 15
-4 14 14 -2 16 -15 20 -15 15 -3 -4 10 2 22 15 31 23 16 50 13 50 -7 0 -6 11
-16 25 -22 22 -11 25 -9 34 15 7 19 10 21 10 7 1 -15 4 -16 15 -7 12 10 17 8
26 -10 15 -28 29 -10 31 41 1 24 3 28 6 12 2 -12 9 -20 14 -16 6 3 15 1 22 -4
7 -5 23 -8 37 -6 14 3 32 5 40 5 8 1 20 5 25 9 17 11 67 10 83 -2 11 -10 17
-9 27 5 16 23 24 22 18 -3 -4 -16 -2 -19 13 -13 11 3 30 14 44 22 15 10 21 11
17 4 -10 -15 43 -19 59 -4 5 4 21 11 37 15 20 5 29 2 34 -10 8 -22 44 -33 64
-21 12 8 37 7 86 -2 106 -20 157 -19 182 3 l22 20 -23 13 -23 14 26 -5 c16 -4
31 0 38 8 9 11 3 13 -38 11 -27 -2 -54 -6 -59 -9 -6 -3 -14 -1 -17 5 -4 5 -28
10 -54 8 -25 -1 -53 1 -61 4 -8 3 -23 6 -32 6 -46 3 -58 6 -58 13 0 7 85 14
120 9 38 -5 87 0 113 10 19 8 31 9 38 2 12 -12 59 -5 59 9 0 5 -10 7 -22 3
-22 -6 -23 -6 -3 10 18 15 17 15 -15 9 -19 -3 -59 -14 -87 -24 -29 -10 -53
-14 -53 -10 0 5 6 11 13 14 6 3 1 3 -13 1 -14 -2 -51 -7 -83 -10 -53 -6 -58
-5 -55 12 2 12 14 19 36 21 26 3 32 8 32 27 0 27 -17 36 -42 23 -12 -5 -18 -5
-18 2 0 5 5 10 10 10 6 0 10 5 10 11 0 6 -14 0 -32 -13 -35 -24 -58 -31 -58
-18 0 5 8 14 18 19 35 21 -12 12 -53 -10 l-40 -21 30 32 30 32 -37 -15 c-21
-9 -58 -30 -82 -46 -46 -32 -56 -36 -56 -23 0 4 18 18 40 32 22 14 40 28 40
32 0 5 6 8 14 8 7 0 20 8 27 18 13 15 12 16 -4 3 -9 -8 -20 -11 -23 -9 -3 3 6
15 20 26 31 23 34 37 7 22 -11 -5 -29 -10 -41 -10 -11 0 -35 -7 -52 -16 -16
-9 -28 -12 -25 -7 4 5 24 18 46 28 22 10 38 21 35 26 -2 4 9 15 26 24 16 8 30
18 30 21 0 10 -65 -8 -81 -22 -8 -8 -20 -14 -27 -14 -6 0 -29 -21 -53 -47 -41
-47 -41 -47 -21 -10 12 20 19 37 17 37 -11 0 -55 -24 -55 -30 0 -4 -14 -7 -30
-7 -24 0 -30 4 -25 16 2 9 -13 -4 -35 -28 -23 -24 -37 -36 -34 -25 7 19 7 19
-14 0 -26 -23 -27 -19 -6 22 15 30 74 82 74 65 0 -4 4 -3 8 3 12 19 124 63
186 74 33 5 86 10 118 10 64 0 75 12 26 30 -109 38 -373 2 -447 -62 -10 -8
-29 -18 -44 -22 -14 -3 -47 -24 -72 -46 -50 -43 -57 -47 -49 -27 8 21 126 104
186 132 34 15 44 23 28 22 -16 -1 -25 4 -28 16 -3 16 3 18 65 17 90 -2 95 -1
89 9 -5 8 -101 26 -118 23 -4 -1 -18 2 -32 7 -13 6 -27 7 -30 3 -4 -3 -18 -7
-31 -8 -13 0 -60 -11 -105 -24 -68 -19 -91 -32 -134 -71 -41 -37 -56 -45 -65
-36 -8 8 -14 9 -19 1 -8 -12 -52 -29 -52 -19 0 3 35 28 77 56 43 28 79 52 81
54 2 2 -11 0 -30 -4 -43 -10 -94 -36 -139 -72 -20 -16 -39 -29 -42 -29 -3 0
-32 -27 -64 -60 -53 -56 -83 -74 -83 -50 0 13 60 80 71 80 5 0 18 9 29 20 15
15 16 20 6 20 -8 0 -18 -5 -21 -10 -6 -10 -78 -50 -90 -50 -3 0 -3 4 0 10 24
38 -148 -82 -182 -128 -26 -35 -53 -98 -53 -123 0 -9 -8 -25 -17 -35 -15 -15
-15 -18 -1 -28 25 -18 10 -74 -31 -118 -20 -22 -64 -68 -98 -102 l-62 -62 6
-51 c4 -34 10 -50 18 -47 6 3 12 -2 12 -10 0 -8 -6 -12 -14 -9 -10 4 -13 -7
-13 -41 0 -25 -4 -46 -9 -46 -14 0 -21 28 -8 33 7 2 3 8 -9 15 -20 10 -21 9
-19 -26 2 -20 0 -41 -3 -47 -3 -5 -7 -16 -8 -25 -1 -8 -5 -28 -9 -44 -6 -21
-5 -27 4 -22 6 4 11 1 11 -9 0 -9 7 -27 16 -40 15 -23 14 -28 -12 -80 -16 -30
-32 -55 -37 -55 -5 0 -7 -10 -6 -22 2 -13 -2 -33 -9 -45 -7 -12 -12 -37 -12
-57 0 -19 -5 -38 -10 -41 -6 -4 -8 -10 -6 -13 2 -4 -5 -19 -16 -32 l-20 -25 5
27 c3 20 -2 29 -19 37 -28 12 -57 4 -50 -14 5 -13 -31 -28 -45 -19 -15 9 8 49
27 49 12 0 18 6 16 16 -2 12 5 15 28 11 37 -5 37 2 4 45 -30 40 -25 52 15 36
32 -12 40 -8 59 24 16 29 16 30 -7 43 -16 8 -26 4 -53 -20 -37 -34 -47 -36
-89 -15 -24 13 -28 20 -23 40 5 22 3 25 -19 25 -40 0 -41 17 -1 23 27 5 45 0
74 -18 37 -23 38 -23 43 -4 3 13 14 19 31 19 14 0 26 5 26 10 0 6 -15 10 -34
10 -22 0 -45 9 -64 25 -17 14 -34 25 -39 25 -15 0 -63 55 -63 71 0 8 -9 25
-19 36 -11 12 -17 24 -14 27 4 3 0 17 -7 31 -7 14 -11 27 -9 30 7 7 69 -38 69
-50 0 -6 19 -25 42 -43 34 -26 48 -31 73 -26 22 4 35 1 44 -10 15 -17 86 -23
76 -6 -3 6 -15 10 -25 10 -10 0 -33 14 -50 31 -28 28 -32 30 -43 15 -12 -16
-23 -13 -45 16 -10 13 -11 22 -2 37 9 19 8 21 -13 21 -13 0 -34 11 -47 25 -24
25 -24 25 -32 6 -10 -28 -32 -18 -58 26 -15 27 -18 38 -9 43 16 10 2 30 -20
30 -10 0 -24 7 -31 15 -11 13 -8 15 14 15 32 0 33 8 4 41 -23 25 -48 64 -48
74 0 3 7 5 15 5 8 0 15 -5 15 -12 0 -6 3 -9 6 -6 10 11 -16 48 -29 42 -15 -5
-63 55 -59 74 2 6 -2 12 -8 12 -5 0 -10 4 -10 10 0 5 3 9 8 9 21 -4 32 3 32
17 0 14 -3 14 -16 3 -13 -11 -14 -9 -8 17 7 27 6 28 -10 12 -9 -10 -16 -26
-14 -35 2 -14 -5 -19 -29 -21 -26 -3 -36 3 -59 33 -23 30 -25 39 -16 60 8 18
8 35 -2 67 -8 24 -14 37 -15 31 -1 -18 -21 -16 -21 2 0 18 -16 20 -24 3 -3 -7
-3 -1 0 13 4 18 1 26 -9 26 -9 0 -18 -13 -21 -29 -5 -25 -10 -28 -43 -28 -29
-1 -34 -3 -22 -10 11 -6 15 -18 11 -35 -2 -14 2 -33 9 -42 12 -15 12 -16 -8
-11 -31 8 -29 -10 2 -24 14 -6 28 -22 31 -35 4 -13 11 -23 16 -23 6 0 8 -6 5
-13 -3 -8 8 -21 27 -31 18 -10 45 -36 59 -59 15 -23 40 -51 56 -62 30 -19 30
-20 10 -38 -21 -20 -25 -42 -8 -52 6 -4 8 -13 5 -20 -3 -8 0 -16 7 -18 9 -3 9
-7 0 -17 -17 -19 -43 -5 -36 19 4 16 -1 23 -21 31 -27 10 -33 29 -15 47 17 17
-43 62 -75 56 -31 -6 -35 -33 -6 -40 28 -8 26 -39 -2 -38 -39 2 -75 22 -98 55
-12 17 -27 30 -33 29 -7 -1 -25 3 -40 9 -16 7 -37 12 -47 12 -10 0 -22 5 -25
10 -5 8 -11 8 -20 0 -17 -14 -39 13 -32 40 6 24 -9 37 -50 45 l-32 5 26 -52
c14 -29 29 -60 33 -68 10 -19 69 -17 81 2 6 9 11 10 17 2 4 -6 18 -17 31 -23
36 -19 12 -29 -51 -22 -32 4 -62 3 -66 -1 -5 -5 -28 -3 -50 5 -36 12 -42 13
-42 1 0 -8 -4 -14 -10 -14 -5 0 -10 5 -10 11 0 6 -9 24 -20 39 -13 18 -16 31
-10 35 18 11 12 46 -7 43 -18 -3 -20 17 -6 52 9 22 5 68 -11 125 -27 95 -34
135 -24 141 6 4 5 10 -3 14 -10 7 -10 11 0 24 12 14 9 16 -19 16 -25 0 -31 3
-26 16 3 9 6 21 6 27 0 7 4 19 10 27 7 12 13 9 30 -13 16 -20 29 -26 53 -24
23 1 34 -3 42 -20 7 -13 19 -31 28 -41 10 -10 17 -30 17 -44 0 -14 8 -36 19
-49 16 -20 21 -21 35 -10 9 7 14 17 11 21 -8 13 13 22 28 13 6 -4 19 -6 28 -5
9 2 19 -4 22 -13 4 -8 13 -15 21 -15 7 0 16 -9 19 -21 3 -12 10 -18 16 -15 6
4 18 -5 27 -19 18 -28 34 -33 34 -10 0 8 -6 15 -13 15 -7 0 -18 9 -25 20 -11
18 -9 22 13 32 37 17 33 46 -7 50 -26 2 -33 8 -33 24 -1 12 -6 28 -13 37 -16
19 -5 52 13 37 6 -5 14 -7 18 -4 3 3 10 -3 16 -14 6 -11 7 -22 4 -26 -3 -3 -3
-6 0 -6 12 0 46 38 40 44 -4 3 -14 6 -24 6 -15 0 -17 4 -10 23 8 20 4 25 -31
42 -23 11 -34 21 -27 24 15 4 29 21 29 34 0 4 -14 0 -31 -9 -38 -19 -61 -6
-42 25 10 16 9 20 -10 25 -14 4 -18 9 -10 14 6 4 13 21 15 37 3 28 6 30 39 27
63 -6 54 20 -14 42 -22 7 -31 31 -22 54 5 9 7 25 6 35 -3 20 10 22 27 5 17
-17 15 -2 -4 28 -18 26 -12 46 8 26 19 -19 26 -14 21 13 -6 27 -41 44 -53 25
-6 -10 -8 -10 -12 0 -2 7 -14 10 -27 8 l-24 -3 26 -31 c27 -32 36 -64 17 -64
-5 0 -10 7 -10 16 0 8 -5 12 -10 9 -6 -4 -10 -16 -9 -28 4 -42 -1 -57 -18 -57
-21 1 -57 46 -48 60 9 15 25 2 25 -20 0 -13 5 -17 20 -13 19 5 19 6 -3 35 -12
16 -39 39 -59 51 -21 11 -38 27 -38 34 0 8 -13 13 -38 13 -38 0 -38 0 -34 -36z
m87 -44 c3 -5 2 -10 -4 -10 -5 0 -13 5 -16 10 -3 6 -2 10 4 10 5 0 13 -4 16
-10z m-45 -104 c0 -3 -4 -8 -10 -11 -5 -3 -10 -1 -10 4 0 6 5 11 10 11 6 0 10
-2 10 -4z m5 -46 c3 -5 2 -10 -4 -10 -5 0 -13 5 -16 10 -3 6 -2 10 4 10 5 0
13 -4 16 -10z m173 -28 c4 -25 -13 -30 -22 -6 -9 25 -7 36 7 32 6 -3 13 -14
15 -26z m-620 -8 c30 -8 28 -20 -3 -19 -28 2 -61 25 -34 25 7 0 24 -3 37 -6z
m2551 -18 c-2 -2 -15 -9 -29 -15 -24 -11 -24 -11 -6 3 16 13 49 24 35 12z
m-2269 -16 c0 -5 -2 -10 -4 -10 -3 0 -8 5 -11 10 -3 6 -1 10 4 10 6 0 11 -4
11 -10z m2283 -7 c-18 -9 -33 -20 -33 -25 0 -4 -5 -8 -12 -8 -6 0 -20 -7 -30
-17 -10 -9 -18 -12 -18 -7 0 19 88 74 115 73 6 0 -5 -8 -22 -16z m-2233 -3 c0
-5 -2 -10 -4 -10 -3 0 -8 5 -11 10 -3 6 -1 10 4 10 6 0 11 -4 11 -10z m2280
-20 c-24 -15 -37 -11 -16 5 11 8 22 12 25 9 3 -3 -1 -9 -9 -14z m-2420 0 c0
-5 -7 -10 -15 -10 -8 0 -15 5 -15 10 0 6 7 10 15 10 8 0 15 -4 15 -10z m2250
7 c0 -2 -10 -12 -22 -23 l-23 -19 19 23 c18 21 26 27 26 19z m568 -4 c-10 -2
-28 -2 -40 0 -13 2 -5 4 17 4 22 1 32 -1 23 -4z m-2910 -26 c5 -24 -15 -21
-28 4 -10 18 -9 20 7 17 10 -2 19 -11 21 -21z m482 13 c0 -5 -4 -10 -10 -10
-5 0 -10 5 -10 10 0 6 5 10 10 10 6 0 10 -4 10 -10z m2313 3 c-7 -2 -19 -2
-25 0 -7 3 -2 5 12 5 14 0 19 -2 13 -5z m-2938 -13 c5 -8 11 -8 20 0 9 7 16 6
25 -5 7 -8 21 -15 31 -15 17 0 33 -21 59 -78 7 -17 7 -36 0 -63 -9 -34 -30
-63 -30 -42 0 5 -25 20 -55 33 -32 14 -54 29 -51 36 3 7 -2 20 -9 31 -20 26
-18 41 6 48 18 6 19 9 6 23 -22 27 -29 42 -18 42 5 0 13 -5 16 -10z m2505 6
c0 -2 -8 -10 -17 -17 -16 -13 -17 -12 -4 4 13 16 21 21 21 13z m374 -7 c-3 -6
-27 -20 -51 -31 -25 -11 -71 -47 -104 -80 -61 -62 -73 -65 -39 -11 19 32 51
56 140 106 50 28 64 32 54 16z m-84 -14 c0 -5 -49 -31 -85 -45 -14 -5 -25 -7
-25 -5 0 3 18 12 40 21 22 9 40 20 40 25 0 5 7 9 15 9 8 0 15 -2 15 -5z
m-2450 -39 c12 -33 13 -42 4 -33 -10 9 -34 -19 -34 -40 -1 -17 -1 -17 -15 1
-7 10 -19 15 -25 11 -7 -4 -10 5 -8 27 1 19 -1 39 -5 45 -8 13 8 20 45 19 21
-1 30 -8 38 -30z m-205 -6 c-6 -9 -9 -9 -16 1 -10 17 0 34 13 21 6 -6 7 -16 3
-22z m472 -32 c-3 -7 -5 -2 -5 12 0 14 2 19 5 13 2 -7 2 -19 0 -25z m-363 7
c3 -9 0 -15 -9 -15 -8 0 -15 7 -15 15 0 8 4 15 9 15 5 0 11 -7 15 -15z m1786
-55 c-28 -28 -56 -48 -61 -45 -5 4 -10 0 -10 -7 -1 -7 -2 -18 -3 -25 0 -7 -10
-19 -21 -28 -13 -10 -14 -13 -4 -10 14 5 14 2 0 -43 -10 -31 -21 -48 -28 -45
-7 3 -13 -1 -14 -8 0 -8 -5 -1 -9 15 -14 46 30 117 114 187 87 72 105 77 36 9z
m76 25 c-11 -8 -16 -15 -10 -15 5 0 -2 -10 -16 -21 -14 -11 -19 -18 -12 -14
14 7 14 -1 2 -30 -7 -17 -9 -17 -9 -2 -1 20 -21 23 -39 5 -9 -9 -12 -9 -12 -1
0 22 81 93 105 93 5 0 1 -7 -9 -15z m-1440 -44 c7 -13 16 -27 22 -33 11 -11 4
-48 -9 -48 -5 0 -9 7 -9 15 0 8 -4 15 -9 15 -5 0 -11 9 -14 20 -3 11 -10 20
-16 20 -6 0 -8 -7 -5 -15 4 -8 1 -15 -5 -15 -6 0 -11 -9 -11 -20 0 -11 -4 -20
-9 -20 -5 0 -11 -7 -13 -16 -3 -13 -6 -13 -22 -1 -17 13 -17 14 -1 31 13 12
16 27 12 51 -4 27 -1 36 16 48 26 18 54 5 73 -32z m-316 -36 c0 -18 -4 -23
-15 -19 -17 7 -17 7 -9 28 9 24 24 19 24 -9z m1741 -38 c-8 -8 -11 -7 -11 4 0
20 13 34 18 19 3 -7 -1 -17 -7 -23z m1189 13 c0 -5 -19 -10 -42 -9 -37 1 -39
2 -18 9 36 12 60 12 60 0z m-3242 -22 c3 -15 0 -16 -27 -7 -38 14 -41 31 -4
27 17 -2 29 -10 31 -20z m2022 -8 c-10 -18 -14 -20 -21 -9 -6 10 -9 11 -9 2 0
-7 -4 -13 -9 -13 -5 0 -8 8 -7 18 2 9 10 17 19 17 8 0 19 4 23 8 13 13 16 -1
4 -23z m-1340 6 c0 -3 -4 -8 -10 -11 -5 -3 -10 -1 -10 4 0 6 5 11 10 11 6 0
10 -2 10 -4z m40 -11 c0 -8 -4 -15 -9 -15 -13 0 -22 16 -14 24 11 11 23 6 23
-9z m2440 -15 c-20 -13 -33 -13 -25 0 3 6 14 10 23 10 15 0 15 -2 2 -10z
m-2276 -53 c14 -34 14 -38 0 -44 -9 -3 -20 0 -25 8 -10 17 -12 63 -2 72 8 9 8
9 27 -36z m-839 4 c3 -5 1 -12 -5 -16 -5 -3 -10 1 -10 9 0 18 6 21 15 7z m251
-18 c-10 -10 -19 5 -10 18 6 11 8 11 12 0 2 -7 1 -15 -2 -18z m630 -10 c-11
-11 -19 6 -11 24 8 17 8 17 12 0 3 -10 2 -21 -1 -24z m-943 -42 c12 -46 0 -51
-18 -8 -18 44 -19 50 -3 45 7 -3 16 -19 21 -37z m377 23 c0 -8 -5 -12 -10 -9
-6 4 -8 11 -5 16 9 14 15 11 15 -7z m1540 -20 c0 -8 -4 -12 -10 -9 -5 3 -10
13 -10 21 0 8 5 12 10 9 6 -3 10 -13 10 -21z m1127 20 c-3 -3 -12 -4 -19 -1
-8 3 -5 6 6 6 11 1 17 -2 13 -5z m-2786 -41 c-12 -20 -14 -14 -5 12 4 9 9 14
11 11 3 -2 0 -13 -6 -23z m1854 -15 c29 -31 18 -31 -17 0 -15 13 -24 32 -15
32 1 0 16 -14 32 -32z m-2015 -4 c0 -8 -5 -12 -10 -9 -6 4 -8 11 -5 16 9 14
15 11 15 -7z m1835 6 c3 -6 -1 -7 -9 -4 -18 7 -21 14 -7 14 6 0 13 -4 16 -10z
m-1547 -42 c-2 -12 -8 -23 -14 -25 -15 -5 -25 35 -10 41 22 9 27 6 24 -16z
m592 13 c0 -5 10 -13 21 -16 14 -5 18 -10 10 -14 -6 -4 -9 -15 -5 -24 11 -30
-10 -18 -33 18 -27 41 -28 45 -8 45 8 0 15 -4 15 -9z m-990 -25 c0 -8 -4 -17
-9 -20 -10 -7 -23 19 -14 28 11 11 23 6 23 -8z m97 -33 c-3 -10 -5 -2 -5 17 0
19 2 27 5 18 2 -10 2 -26 0 -35z m1990 1 c-3 -3 -12 -4 -19 -1 -8 3 -5 6 6 6
11 1 17 -2 13 -5z m-2027 -14 c0 -5 -4 -10 -10 -10 -5 0 -10 5 -10 10 0 6 5
10 10 10 6 0 10 -4 10 -10z m1070 -21 c0 -5 -4 -9 -10 -9 -5 0 -10 7 -10 16 0
8 5 12 10 9 6 -3 10 -10 10 -16z m-1034 -26 c-11 -11 -19 6 -11 24 8 17 8 17
12 0 3 -10 2 -21 -1 -24z m964 16 c6 -11 9 -25 6 -32 -2 -7 -5 -4 -5 6 -1 9
-8 17 -16 17 -8 0 -15 7 -15 15 0 22 17 18 30 -6z m-1030 -8 c0 -17 -18 -21
-24 -6 -3 9 0 15 9 15 8 0 15 -4 15 -9z m100 -1 c0 -5 -4 -10 -10 -10 -5 0
-10 5 -10 10 0 6 5 10 10 10 6 0 10 -4 10 -10z m286 -17 c-10 -10 -19 5 -10
18 6 11 8 11 12 0 2 -7 1 -15 -2 -18z m-309 -18 c3 -9 18 -22 34 -31 30 -15
40 -44 15 -44 -7 0 -19 7 -26 15 -10 12 -15 12 -38 -3 -25 -16 -25 -16 -20 10
3 15 1 32 -3 39 -4 7 -5 17 -3 21 9 14 34 9 41 -7z m-57 -51 c0 -8 -4 -13 -9
-10 -4 3 -17 -1 -27 -9 -26 -20 -33 -18 -27 4 4 17 13 22 56 30 4 0 7 -6 7
-15z m1059 -24 c1 -14 8 -28 13 -31 6 -4 9 -11 7 -17 -2 -6 -19 3 -37 19 -21
19 -31 36 -28 45 9 24 41 12 45 -16z m661 16 c0 -2 -11 -6 -25 -8 -13 -3 -22
-1 -19 3 5 9 44 13 44 5z m-1432 -24 c2 -7 -2 -10 -12 -6 -9 3 -16 11 -16 16
0 13 23 5 28 -10z m382 -2 c0 -11 7 -20 16 -20 11 0 14 6 9 20 -5 14 -2 20 9
20 9 0 16 -4 16 -9 0 -12 148 -161 160 -161 11 0 13 -30 4 -54 -3 -9 -15 -16
-25 -16 -10 0 -19 -4 -19 -8 0 -13 80 -82 94 -82 21 0 42 -31 61 -88 16 -50
20 -55 81 -85 35 -17 64 -37 64 -44 0 -18 -10 -16 -32 4 -14 13 -21 14 -30 5
-7 -7 -22 -12 -35 -12 -14 0 -23 -6 -23 -16 0 -8 -5 -12 -11 -8 -8 4 -8 9 0
17 7 7 7 14 0 24 -19 22 -32 15 -26 -16 3 -16 4 -31 1 -34 -10 -9 -109 48
-109 64 0 9 -6 23 -13 31 -6 8 -8 18 -4 22 4 4 0 6 -8 4 -29 -6 -16 35 14 45
26 9 32 6 56 -23 20 -25 32 -31 45 -26 17 6 14 12 -22 47 -35 36 -43 40 -61
30 -14 -7 -23 -8 -27 -1 -10 16 4 30 30 30 13 0 27 5 31 12 5 7 0 9 -14 6 -12
-4 -26 0 -33 8 -6 8 -20 14 -30 14 -11 0 -19 7 -19 15 0 8 -9 15 -19 15 -28 0
-35 -17 -11 -25 11 -3 20 -13 20 -21 0 -8 6 -14 13 -14 6 0 4 -5 -6 -11 -10
-6 -25 -8 -33 -5 -8 3 -14 1 -14 -4 0 -17 -20 -11 -27 8 -4 9 -10 19 -13 22
-4 3 -10 20 -13 38 -6 27 -4 32 13 32 30 0 24 20 -9 31 -16 6 -32 17 -35 25
-3 8 -15 14 -27 14 -13 0 -30 7 -39 15 -16 14 -18 14 -23 1 -7 -17 23 -38 44
-34 8 2 13 -11 14 -37 1 -22 5 -53 9 -69 7 -23 6 -27 -4 -21 -10 6 -12 -2 -8
-39 7 -55 45 -103 86 -108 31 -4 68 -59 55 -82 -7 -13 -12 -13 -33 -1 -44 25
-51 28 -57 21 -4 -3 4 -17 17 -31 25 -26 21 -47 -5 -25 -13 10 -15 9 -15 -8 0
-19 -1 -19 -35 -4 -30 14 -35 21 -35 49 0 31 3 33 26 31 30 -3 42 14 22 31 -7
6 -24 21 -38 32 -20 17 -22 22 -10 30 12 7 11 10 -7 15 -13 4 -21 10 -18 14 7
11 -34 60 -51 60 -8 0 -14 10 -14 24 0 31 -25 51 -66 51 -34 0 -37 -3 -35 -40
0 -14 -1 -16 -6 -5 -3 8 -12 23 -20 32 -16 18 -12 41 12 72 14 18 15 17 39
-11 19 -22 33 -29 53 -27 15 1 38 2 51 3 21 1 33 30 12 32 -19 3 -25 5 -58 22
-38 21 -33 41 9 32 36 -8 39 10 8 49 -11 14 -18 26 -14 26 3 0 1 9 -5 20 -9
17 -8 20 12 21 20 1 19 3 -9 15 -18 8 -33 18 -33 23 0 10 90 8 107 -2 6 -4 16
0 23 8 18 22 50 19 50 -5z m-612 -13 c9 -10 6 -17 -8 -30 -11 -9 -20 -12 -20
-6 0 5 -4 7 -10 4 -11 -7 -13 6 -4 29 7 19 28 21 42 3z m162 4 c0 -6 -4 -13
-10 -16 -5 -3 -10 1 -10 9 0 9 5 16 10 16 6 0 10 -4 10 -9z m247 -6 c8 -23 -4
-30 -23 -14 -16 13 -16 12 -5 -9 15 -28 7 -40 -17 -26 -26 17 -26 39 0 52 32
15 38 14 45 -3z m-386 -52 c-9 -16 -10 -16 -11 -1 0 9 3 25 7 35 7 16 8 17 11
1 2 -10 -1 -25 -7 -35z m757 24 c2 -11 -3 -17 -16 -17 -15 0 -19 5 -15 20 6
24 26 21 31 -3z m-880 -57 c44 -66 92 -114 104 -102 13 13 2 31 -28 42 -13 5
-24 14 -24 20 0 31 74 -21 80 -56 3 -19 11 -29 22 -29 10 0 23 -6 30 -13 14
-14 32 -16 23 -2 -3 6 -1 10 4 10 11 0 10 -22 -4 -52 -11 -27 2 -51 25 -45 14
4 31 -5 53 -25 30 -28 31 -30 7 -23 -14 4 -27 11 -30 14 -6 8 -50 12 -50 5 0
-13 40 -45 49 -39 13 7 38 -41 27 -52 -4 -4 -16 -1 -27 6 -29 17 -34 8 -21
-38 12 -40 8 -66 -15 -89 -10 -10 -17 -10 -38 4 -29 19 -24 34 11 34 17 0 24
5 24 20 0 13 -7 20 -20 20 -15 0 -20 7 -20 25 0 14 -4 25 -10 25 -5 0 -10 5
-10 10 0 6 6 10 14 10 14 0 30 29 21 38 -3 3 -5 -1 -5 -9 -1 -10 -5 -9 -15 5
-8 10 -12 23 -9 27 3 5 -2 9 -10 9 -20 0 -21 19 -1 34 19 14 24 57 6 64 -10 3
-12 -3 -7 -25 6 -26 4 -30 -14 -29 -11 0 -26 12 -33 25 -7 13 -22 31 -34 39
-22 14 -23 13 -23 -12 0 -14 -4 -26 -10 -26 -5 0 -10 15 -10 34 0 19 -4 38
-10 41 -5 3 -10 -1 -10 -9 0 -9 -6 -16 -13 -16 -22 0 -28 12 -13 29 7 9 17 26
20 39 6 19 4 22 -18 22 -14 0 -26 4 -26 9 0 10 -39 27 -53 23 -5 -2 -7 5 -5
15 2 10 11 17 21 17 9 -1 17 3 17 8 0 21 36 1 58 -32z m1143 20 c12 -7 19 -21
19 -39 0 -25 -3 -28 -25 -23 -19 3 -24 1 -20 -11 4 -8 -1 -17 -9 -20 -9 -4
-16 -1 -16 5 0 6 -7 20 -17 30 -13 15 -14 23 -5 43 12 27 40 32 73 15z m-813
-20 c17 -11 32 -24 32 -30 0 -17 -29 -11 -60 12 -53 39 -30 53 28 18z m-88 0
c0 -5 -7 -10 -15 -10 -8 0 -15 5 -15 10 0 6 7 10 15 10 8 0 15 -4 15 -10z
m268 -20 c7 -12 10 -25 7 -30 -8 -12 -54 20 -55 38 0 20 34 14 48 -8z m-270
-27 c-5 -23 -23 -20 -26 4 -3 18 0 21 13 17 9 -4 15 -13 13 -21z m802 -4 c0
-5 -4 -9 -10 -9 -5 0 -10 7 -10 16 0 8 5 12 10 9 6 -3 10 -10 10 -16z m-1092
-25 c-10 -10 -28 6 -28 24 0 15 1 15 17 -1 9 -9 14 -19 11 -23z m416 0 c13 -5
12 -9 -4 -27 -11 -11 -20 -33 -20 -49 0 -30 -14 -38 -24 -12 -3 8 -10 12 -16
9 -5 -3 -10 1 -10 10 0 9 4 14 9 11 4 -3 17 1 27 9 18 13 18 14 -9 20 -31 8
-35 21 -9 28 27 7 39 7 56 1z m1346 -14 c-6 -11 -13 -20 -16 -20 -2 0 0 9 6
20 6 11 13 20 16 20 2 0 0 -9 -6 -20z m-1292 -8 c2 -7 -3 -12 -10 -12 -8 0
-15 7 -15 15 0 18 19 15 25 -3z m1252 -23 c0 -5 5 -7 12 -3 7 4 8 3 4 -5 -6
-9 -11 -9 -22 0 -17 14 -18 19 -4 19 6 0 10 -5 10 -11z m-540 -21 c0 -13 -23
-5 -28 10 -2 7 2 10 12 6 9 -3 16 -11 16 -16z m520 -12 c0 -8 -4 -17 -9 -21
-6 -3 -9 4 -8 15 1 23 17 28 17 6z m-1400 -36 c0 -19 -11 -26 -23 -14 -8 8 3
34 14 34 5 0 9 -9 9 -20z m50 -20 c0 -12 -3 -12 -16 2 -9 9 -13 21 -9 28 9 14
25 -5 25 -30z m-232 -7 c2 -8 -5 -13 -17 -13 -21 0 -35 13 -24 24 10 10 36 3
41 -11z m306 1 c4 -9 4 -19 2 -21 -8 -8 -26 8 -26 23 0 19 16 18 24 -2z m60
-20 c19 -7 22 -34 4 -34 -15 1 -48 24 -48 34 0 8 24 8 44 0z m-63 -40 c14 -37
8 -38 -25 -4 -26 28 -27 30 -7 30 14 0 25 -9 32 -26z m-341 6 c0 -5 -7 -10
-15 -10 -8 0 -15 5 -15 10 0 6 7 10 15 10 8 0 15 -4 15 -10z m390 -40 c0 -5
-2 -10 -4 -10 -3 0 -8 5 -11 10 -3 6 -1 10 4 10 6 0 11 -4 11 -10z m65 -1 c12
-19 -5 -23 -22 -6 -16 16 -16 17 -1 17 9 0 20 -5 23 -11z m-109 -109 c13 0 24
-4 24 -9 0 -4 18 -21 41 -36 38 -27 39 -29 20 -39 -18 -10 -14 -14 40 -35 51
-19 62 -29 79 -64 13 -27 17 -44 10 -51 -6 -6 -5 -15 3 -25 18 -22 38 -71 29
-71 -4 0 -25 6 -46 14 -42 14 -61 44 -51 77 4 12 1 19 -6 19 -19 0 -79 49 -76
62 1 7 -22 20 -50 31 -44 16 -53 24 -53 43 0 15 -6 24 -15 24 -25 0 -38 47
-26 98 1 2 13 -6 27 -17 15 -12 37 -21 50 -21z m99 30 c3 -5 2 -10 -4 -10 -5
0 -13 5 -16 10 -3 6 -2 10 4 10 5 0 13 -4 16 -10z m150 -20 c3 -5 -1 -10 -9
-10 -9 0 -16 5 -16 10 0 6 4 10 9 10 6 0 13 -4 16 -10z m509 -73 c4 -17 3 -17
-17 -4 -12 8 -24 22 -25 31 -3 15 -1 16 17 5 11 -7 22 -21 25 -32z m-82 -8
c21 -11 21 -12 3 -25 -15 -11 -16 -16 -5 -29 10 -12 10 -15 -3 -15 -9 0 -19 5
-22 10 -4 6 -21 8 -40 4 -44 -8 -56 0 -42 29 8 18 17 22 38 19 14 -2 30 1 33
7 9 14 12 14 38 0z m3445 -48 c26 -9 48 -21 50 -28 7 -19 -34 -25 -66 -9 -17
9 -53 16 -81 16 -27 0 -50 5 -50 10 0 6 14 10 30 10 35 0 40 19 8 28 -21 6
-21 7 7 12 21 5 34 2 42 -8 7 -9 34 -22 60 -31z m131 18 c-2 -6 -8 -10 -13
-10 -5 0 -11 4 -13 10 -2 6 4 11 13 11 9 0 15 -5 13 -11z m-3940 -21 c35 -7
52 -17 55 -30 3 -10 14 -18 26 -18 12 0 31 -9 43 -20 22 -20 85 -29 73 -10 -3
6 -12 10 -19 10 -7 0 -21 9 -30 19 -10 11 -31 23 -47 26 -25 6 -27 8 -15 21
16 16 96 19 96 4 0 -5 -4 -10 -10 -10 -19 0 -10 -17 15 -28 15 -7 25 -20 25
-32 0 -19 5 -20 65 -15 58 4 67 2 95 -21 16 -14 30 -32 30 -40 0 -19 -50 -18
-78 2 -20 14 -22 14 -22 -1 0 -19 -34 -12 -61 11 -18 16 -39 18 -39 4 0 -16
-40 -12 -46 4 -4 11 -19 14 -50 12 -39 -2 -45 0 -50 21 -7 25 -64 63 -64 42 0
-6 8 -13 18 -16 29 -7 66 -83 41 -83 -5 0 -9 5 -9 10 0 6 -4 10 -10 10 -5 0
-10 -7 -10 -15 0 -23 -8 -19 -56 28 -35 34 -44 49 -44 78 0 54 3 55 78 37z
m417 -7 c3 -5 1 -12 -5 -16 -5 -3 -10 1 -10 9 0 18 6 21 15 7z m-1069 -18 c11
-12 13 -18 5 -21 -13 -4 -41 16 -41 29 0 14 17 10 36 -8z m1244 1 c0 -17 -22
-14 -28 4 -2 7 3 12 12 12 9 0 16 -7 16 -16z m-1330 -14 c0 -5 -4 -10 -10 -10
-5 0 -10 5 -10 10 0 6 5 10 10 10 6 0 10 -4 10 -10z m467 -35 c-3 -57 -39 -55
-52 3 -6 31 -5 32 23 32 29 0 30 -2 29 -35z m-168 -5 c3 -25 3 -25 -18 -6 -26
23 -27 39 -3 34 9 -2 19 -14 21 -28z m91 15 c0 -19 -11 -19 -36 0 -18 14 -18
14 9 15 17 0 27 -5 27 -15z m680 5 c0 -5 -2 -10 -4 -10 -3 0 -8 5 -11 10 -3 6
-1 10 4 10 6 0 11 -4 11 -10z m45 -1 c11 -17 0 -20 -21 -4 -17 13 -17 14 -2
15 9 0 20 -5 23 -11z m205 1 c0 -5 -4 -10 -9 -10 -6 0 -13 5 -16 10 -3 6 1 10
9 10 9 0 16 -4 16 -10z m3140 0 c0 -5 -4 -10 -9 -10 -6 0 -13 5 -16 10 -3 6 1
10 9 10 9 0 16 -4 16 -10z m-4430 -41 c0 -5 -4 -9 -10 -9 -5 0 -10 7 -10 16 0
8 5 12 10 9 6 -3 10 -10 10 -16z m340 -25 c0 -8 -4 -12 -10 -9 -5 3 -10 10
-10 16 0 5 5 9 10 9 6 0 10 -7 10 -16z m1150 -4 c11 -11 20 -22 20 -25 0 -3
-9 -5 -20 -5 -24 0 -26 -13 -5 -30 21 -17 19 -43 -5 -58 -16 -10 -20 -10 -21
0 0 7 -2 21 -4 30 -2 10 1 21 7 24 6 4 5 10 -3 15 -11 6 -11 11 -2 20 12 12 6
42 -7 34 -5 -3 -11 -1 -15 5 -11 19 35 10 55 -10z m-822 -8 c2 -7 -3 -12 -12
-12 -9 0 -16 7 -16 16 0 17 22 14 28 -4z m582 -2 c11 -11 29 -20 39 -20 11 0
23 -4 26 -10 3 -5 -3 -10 -14 -10 -24 0 -111 41 -111 52 0 16 40 8 60 -12z
m172 -38 c-27 -4 -37 2 -27 17 4 8 13 7 28 -1 l22 -13 -23 -3z m2878 18 c0 -5
-4 -10 -10 -10 -5 0 -10 5 -10 10 0 6 5 10 10 10 6 0 10 -4 10 -10z m-4165
-27 c35 -28 37 -43 5 -43 -11 0 -26 12 -35 30 -26 49 -19 52 30 13z m4220 17
c3 -5 2 -10 -4 -10 -5 0 -13 5 -16 10 -3 6 -2 10 4 10 5 0 13 -4 16 -10z
m-3921 -16 c21 -21 22 -66 1 -58 -8 4 -15 10 -15 16 0 5 -4 7 -9 3 -12 -7 -25
31 -16 45 9 14 21 12 39 -6z m-147 -30 c8 -22 -2 -27 -26 -14 -12 6 -21 20
-21 31 0 17 3 18 21 9 11 -6 23 -18 26 -26z m503 23 c0 -4 -10 -12 -22 -16
-20 -8 -21 -10 -5 -16 9 -4 17 -15 17 -25 0 -10 8 -21 18 -24 10 -4 34 -20 52
-36 18 -16 36 -27 41 -25 12 8 40 -38 29 -49 -27 -27 -153 78 -176 147 -4 11
-17 17 -35 17 -31 0 -48 18 -29 30 17 10 110 8 110 -3z m3818 7 c32 -9 27 -24
-8 -24 -20 0 -30 5 -30 15 0 17 4 18 38 9z m-4078 -40 c0 -18 -5 -18 -35 2
-34 22 -31 35 5 23 17 -6 30 -17 30 -25z m344 30 c19 -7 21 -44 3 -44 -8 0
-17 3 -21 8 -4 4 -12 8 -17 8 -19 3 -19 4 -7 19 15 16 20 17 42 9z m2637 -22
c-12 -2 -30 -1 -39 3 -13 5 -14 8 -3 15 8 5 25 3 40 -3 25 -12 25 -12 2 -15z
m-2271 8 c0 -5 -7 -10 -15 -10 -8 0 -15 5 -15 10 0 6 7 10 15 10 8 0 15 -4 15
-10z m3085 1 c3 -5 1 -12 -5 -16 -5 -3 -10 1 -10 9 0 18 6 21 15 7z m180 -12
c0 -8 -10 -15 -22 -17 -25 -4 -30 7 -11 26 15 15 33 10 33 -9z m-3520 -8 c3
-5 19 -12 35 -16 31 -7 37 -19 20 -45 -5 -8 -6 -17 -2 -20 15 -11 72 -89 72
-99 0 -5 8 -15 18 -21 12 -8 14 -13 4 -17 -10 -4 -10 -8 -1 -19 7 -8 7 -14 1
-14 -5 0 -15 7 -22 15 -7 8 -19 15 -27 15 -10 0 -12 6 -8 20 7 21 -9 28 -20
10 -10 -16 -35 8 -28 26 3 9 -1 14 -11 14 -22 0 -30 24 -17 48 13 24 3 62 -15
62 -8 0 -14 4 -14 9 0 5 -3 16 -6 25 -6 17 11 22 21 7z m3687 -13 c-1 -10 7
-18 24 -22 20 -5 24 -10 16 -18 -9 -9 -18 -8 -36 1 -18 10 -29 10 -45 2 -17
-9 -26 -9 -42 2 -19 14 -19 15 15 21 20 4 35 10 35 14 -3 18 2 23 19 20 9 -2
16 -11 14 -20z m-4702 2 c0 -5 -4 -10 -10 -10 -5 0 -10 5 -10 10 0 6 5 10 10
10 6 0 10 -4 10 -10z m616 -27 c25 -16 25 -17 8 -30 -29 -21 -44 -16 -44 17 0
35 2 36 36 13z m309 7 c3 -5 1 -10 -4 -10 -6 0 -11 5 -11 10 0 6 2 10 4 10 3
0 8 -4 11 -10z m235 -28 c0 -13 -3 -12 -20 3 -11 10 -17 22 -14 27 8 12 34
-11 34 -30z m650 29 c0 -5 -14 -14 -31 -20 -23 -8 -30 -8 -27 1 3 7 15 15 29
19 13 4 25 7 27 8 1 1 2 -3 2 -8z m2050 -5 c0 -11 -19 -15 -25 -6 -3 5 1 10 9
10 9 0 16 -2 16 -4z m-3530 -16 c0 -5 -2 -10 -4 -10 -3 0 -8 5 -11 10 -3 6 -1
10 4 10 6 0 11 -4 11 -10z m3635 -10 c22 -7 46 -14 53 -16 6 -2 12 -8 12 -15
0 -6 -7 -9 -15 -6 -8 4 -17 2 -20 -3 -4 -6 3 -10 14 -10 29 0 26 -18 -4 -32
-21 -10 -29 -9 -43 5 -15 16 -15 17 1 17 15 0 15 3 5 20 -16 25 -30 26 -21 3
6 -16 3 -16 -18 2 -13 11 -32 28 -42 37 -17 17 -16 18 10 14 16 -1 46 -9 68
-16z m-2058 4 c-3 -3 -12 -4 -19 -1 -8 3 -5 6 6 6 11 1 17 -2 13 -5z m-1467
-29 c16 -17 34 -25 57 -25 23 0 33 -5 33 -15 0 -8 8 -16 18 -16 59 -5 92 -18
92 -35 0 -15 -22 -19 -34 -7 -3 4 -12 8 -19 9 -30 5 -67 24 -67 35 0 8 -4 8
-12 2 -25 -19 -108 28 -108 61 0 23 13 20 40 -9z m310 11 c0 -9 -8 -12 -25 -8
-14 2 -25 8 -25 13 0 5 11 9 25 9 14 0 25 -6 25 -14z m3694 -7 c14 -7 23 -15
21 -20 -6 -9 -65 12 -65 23 0 11 15 10 44 -3z m414 -11 c7 -7 12 -15 12 -19 0
-11 -85 -22 -109 -14 -37 11 -24 34 22 38 23 2 47 4 53 5 5 1 15 -3 22 -10z
m-290 -5 c-10 -2 -26 -2 -35 0 -10 3 -2 5 17 5 19 0 27 -2 18 -5z m-3278 -13
c0 -5 -4 -10 -9 -10 -6 0 -13 5 -16 10 -3 6 1 10 9 10 9 0 16 -4 16 -10z
m2790 -10 c0 -5 -2 -10 -4 -10 -3 0 -8 5 -11 10 -3 6 -1 10 4 10 6 0 11 -4 11
-10z m357 -5 c10 -11 25 -14 46 -10 18 4 43 2 57 -3 16 -6 34 -6 50 0 14 5 51
11 82 13 49 2 58 0 64 -17 3 -10 17 -23 30 -28 30 -12 33 -50 4 -57 -23 -6
-27 -23 -5 -23 25 0 17 -36 -15 -70 -16 -18 -30 -43 -30 -56 0 -17 -6 -24 -19
-24 -11 0 -28 -11 -39 -25 -11 -14 -27 -25 -36 -25 -21 0 -20 -9 1 -32 14 -16
15 -21 4 -27 -19 -12 -4 -31 25 -31 14 0 22 -4 19 -10 -3 -5 -24 -10 -46 -10
-26 0 -39 -4 -39 -14 0 -7 -14 -19 -30 -26 -43 -18 -45 -25 -16 -63 30 -40 34
-57 7 -33 -13 11 -32 16 -57 14 -35 -3 -39 -1 -38 20 0 15 -6 24 -22 28 -28 7
-37 32 -28 79 5 28 11 35 30 35 15 0 24 6 24 16 0 11 -6 14 -17 10 -16 -5 -15
-4 1 9 10 8 24 16 29 18 6 2 12 39 15 84 4 92 -4 107 -67 118 l-39 6 -4 67
c-3 37 -3 70 -1 75 7 12 44 8 60 -8z m-3107 -47 c11 -12 20 -25 20 -30 0 -15
-35 -8 -60 12 -15 12 -18 18 -7 14 11 -4 17 -1 17 10 0 21 5 20 30 -6z m2727
-6 c3 -24 -11 -30 -24 -9 -13 21 -11 35 5 33 8 -2 17 -12 19 -24z m-4036 2
c11 -14 10 -15 -11 -12 -13 1 -25 9 -28 16 -5 17 23 15 39 -4z m1469 7 c0 -12
-28 -22 -34 -12 -3 5 -3 11 1 15 9 9 33 7 33 -3z m2517 3 c-3 -3 -12 -4 -19
-1 -8 3 -5 6 6 6 11 1 17 -2 13 -5z m-3027 -25 c0 -5 -7 -9 -15 -9 -15 0 -20
12 -9 23 8 8 24 -1 24 -14z m-706 5 c9 -3 16 -10 16 -14 0 -10 -38 -1 -46 11
-6 10 7 12 30 3z m4584 -6 c-3 -7 -12 -14 -21 -16 -12 -2 -15 1 -11 12 7 19
38 22 32 4z m122 3 c0 -12 -29 -23 -41 -15 -5 3 -7 10 -4 15 8 12 45 12 45 0z
m86 -1 c8 0 14 -4 14 -9 0 -13 -51 -24 -63 -12 -13 13 2 34 20 27 8 -3 21 -6
29 -6z m-1283 -7 c-13 -2 -35 -2 -50 0 -16 2 -5 4 22 4 28 0 40 -2 28 -4z
m324 1 c-3 -3 -12 -4 -19 -1 -8 3 -5 6 6 6 11 1 17 -2 13 -5z m-2604 -30 c-4
-11 -9 -12 -19 -3 -17 14 -9 30 11 23 7 -3 11 -12 8 -20z m-958 6 c3 -5 -1
-10 -10 -10 -9 0 -13 5 -10 10 3 6 8 10 10 10 2 0 7 -4 10 -10z m324 -29 c9
-6 10 -11 2 -15 -13 -8 -31 1 -31 15 0 11 11 11 29 0z m564 2 c-7 -2 -21 -2
-30 0 -10 3 -4 5 12 5 17 0 24 -2 18 -5z m-973 -13 c0 -5 -4 -10 -10 -10 -5 0
-10 5 -10 10 0 6 5 10 10 10 6 0 10 -4 10 -10z m680 -9 c0 -5 9 -11 20 -14 22
-6 27 -27 7 -27 -21 0 -77 30 -77 41 0 5 11 9 25 9 14 0 25 -4 25 -9z m1060
-12 c47 -5 96 -17 110 -24 14 -8 39 -21 57 -29 17 -9 38 -23 47 -31 29 -30 19
-38 -41 -32 -32 4 -64 6 -72 7 -11 0 -11 3 0 17 8 9 9 14 3 10 -6 -3 -56 -13
-111 -21 -113 -17 -197 -43 -295 -92 -77 -39 -78 -39 -78 -19 0 9 11 20 25 25
16 6 25 17 25 31 0 14 5 19 14 16 8 -3 22 1 33 9 16 14 15 14 -19 10 -29 -3
-38 0 -38 11 0 8 5 11 10 8 10 -6 13 5 14 55 1 20 7 26 29 28 16 2 31 10 34
18 6 17 127 19 253 3z m1557 -4 c24 -3 60 -15 80 -26 46 -26 140 -122 135
-138 -2 -7 4 -21 14 -32 9 -10 14 -22 11 -26 -4 -3 -1 -13 6 -21 20 -26 -16
-8 -86 42 -34 24 -72 47 -84 50 -13 4 -23 11 -23 16 0 8 -50 30 -80 35 -8 1
-42 10 -75 19 -32 9 -88 16 -123 16 -44 0 -62 4 -60 12 2 6 11 15 19 18 8 4
25 13 39 20 13 7 47 16 75 20 49 7 67 7 152 -5z m-2527 -70 c21 -35 21 -65 0
-65 -6 0 -15 11 -20 25 -6 15 -17 25 -29 25 -23 0 -35 15 -27 35 11 29 53 17
76 -20z m2984 26 c4 -5 1 -11 -6 -13 -6 -2 -8 -10 -4 -16 5 -8 16 -10 28 -6
16 5 20 3 15 -9 -3 -9 -1 -17 5 -19 18 -6 3 -33 -30 -57 l-30 -21 -4 75 c-2
53 0 75 9 75 6 0 14 -4 17 -9z m795 -5 c9 -11 6 -15 -19 -18 -17 -3 -33 -1
-36 4 -3 4 -14 8 -25 8 -11 0 -17 5 -14 10 9 15 81 12 94 -4z m-4858 -13 c7
-10 9 -15 5 -11 -5 4 -15 3 -22 -3 -14 -11 -54 -3 -54 11 0 8 20 16 46 19 6 0
18 -7 25 -16z m839 2 c0 -9 -9 -15 -25 -15 -24 0 -32 10 -18 23 12 13 43 7 43
-8z m-946 -1 c20 -8 20 -20 1 -28 -21 -8 -45 3 -45 20 0 15 18 18 44 8z m531
-4 c3 -5 -1 -10 -10 -10 -9 0 -13 5 -10 10 3 6 8 10 10 10 2 0 7 -4 10 -10z
m998 -26 c3 -16 0 -23 -7 -21 -6 3 -10 10 -8 16 1 6 -2 11 -8 11 -5 0 -10 7
-10 15 0 24 27 6 33 -21z m2580 -33 c-9 -13 -17 21 -13 54 2 12 5 6 9 -15 4
-19 6 -37 4 -39z m-3769 36 c16 -24 2 -30 -38 -16 -38 14 -50 31 -16 22 12 -3
20 0 20 7 0 16 21 8 34 -13z m56 4 c0 -12 -28 -22 -34 -12 -3 5 -3 11 1 15 9
9 33 7 33 -3z m554 -7 c24 -9 10 -22 -19 -17 -13 3 -22 9 -19 14 6 11 16 11
38 3z m3846 -4 c0 -11 -75 -9 -86 3 -4 4 14 7 39 7 26 0 47 -4 47 -10z m-4110
-10 c0 -5 -16 -10 -35 -10 -19 0 -35 4 -35 8 0 4 16 9 35 10 19 2 35 -2 35 -8z
m2982 -16 c53 -17 98 -49 98 -69 0 -10 -11 -8 -42 8 -36 18 -61 22 -145 22
-55 0 -99 4 -96 8 3 4 0 14 -7 22 -9 11 -5 15 27 20 21 4 43 8 48 10 14 5 62
-4 117 -21z m1239 -10 c9 -11 8 -15 -5 -20 -16 -6 -66 20 -66 34 0 13 58 1 71
-14z m-1880 -11 c-8 -15 -10 -15 -11 -2 0 17 10 32 18 25 2 -3 -1 -13 -7 -23z
m-3006 7 c3 -5 -6 -12 -20 -16 -29 -7 -41 -1 -30 15 8 14 42 14 50 1z m2175
-11 c0 -5 8 -9 18 -8 34 3 42 -1 41 -23 0 -18 -2 -19 -7 -7 -5 11 -13 14 -27
9 -11 -4 -40 -1 -65 6 -25 7 -69 12 -99 10 -47 -3 -52 -1 -36 11 23 16 175 19
175 2z m2800 1 c0 -5 -4 -10 -10 -10 -5 0 -10 5 -10 10 0 6 5 10 10 10 6 0 10
-4 10 -10z m-202 -12 c20 -20 14 -25 -33 -24 -49 1 -58 11 -22 26 31 12 41 12
55 -2z m-4379 -7 c7 -5 11 -14 7 -20 -5 -8 -12 -7 -25 1 -12 7 -27 8 -47 1
-36 -12 -64 -6 -64 13 0 10 14 14 58 14 31 0 63 -4 71 -9z m460 -12 c39 -24
30 -48 -10 -27 -42 23 -49 29 -44 39 9 13 16 11 54 -12z m-66 -3 c3 -8 3 -17
0 -20 -9 -9 -34 15 -27 25 8 13 21 11 27 -5z m-70 -42 c-7 -18 -13 -17 -40 5
-28 23 -28 28 -5 34 22 5 52 -21 45 -39z m307 12 c0 -3 -4 -8 -10 -11 -5 -3
-10 -1 -10 4 0 6 5 11 10 11 6 0 10 -2 10 -4z m538 -34 l4 -24 -21 21 c-26 26
-26 34 -3 29 9 -2 18 -14 20 -26z m-1054 2 c11 -28 6 -39 -9 -20 -8 11 -15 23
-15 28 0 14 18 9 24 -8z m1942 -8 c10 3 27 -1 38 -9 15 -11 17 -17 7 -35 -8
-15 -8 -27 0 -46 15 -33 4 -46 -65 -80 -68 -33 -99 -33 -133 2 -23 22 -37 27
-73 27 -25 0 -61 -8 -82 -18 -20 -9 -47 -17 -60 -17 -12 0 -54 0 -93 0 -51 0
-66 2 -54 10 23 14 120 28 202 29 27 1 40 21 13 21 -27 0 -67 20 -61 30 4 7
12 7 24 0 10 -5 21 -6 25 -3 10 11 34 14 141 19 138 7 143 10 105 54 -26 30
-16 44 19 25 15 -7 37 -12 47 -9z m624 5 c0 -10 112 -7 153 4 27 7 39 -7 17
-20 -20 -12 -11 -36 13 -34 12 1 30 -1 40 -6 9 -4 24 -5 32 -1 8 3 27 1 42 -4
15 -5 57 -11 93 -14 36 -2 70 -5 75 -6 22 -2 -31 -30 -58 -30 -16 0 -26 -4
-22 -10 3 -5 15 -10 26 -10 10 0 19 -3 19 -7 0 -5 35 -9 77 -11 43 -2 84 -7
93 -12 9 -5 28 -3 46 5 17 7 43 10 58 8 26 -5 26 -6 7 -19 -42 -30 -243 -12
-331 29 -30 14 -160 21 -160 9 0 -8 30 -32 39 -32 6 0 11 -4 11 -10 0 -5 9
-10 21 -10 12 0 17 -4 13 -11 -3 -6 -19 -9 -35 -7 -33 5 -37 -3 -13 -26 17
-17 17 -18 54 -21 14 -1 72 -18 130 -37 58 -19 128 -42 155 -51 l50 -17 -50 6
c-27 3 -58 7 -68 10 -15 5 -17 1 -13 -21 6 -34 15 -43 25 -26 10 16 47 10 43
-7 -3 -14 49 -37 57 -25 3 5 35 9 71 10 36 0 78 3 95 4 23 3 30 0 33 -16 2
-11 10 -27 18 -35 7 -9 14 -30 16 -48 2 -29 18 -48 18 -21 0 5 5 7 10 4 20
-13 51 6 48 28 -2 12 7 33 19 47 13 14 23 32 23 41 0 9 6 32 14 50 12 28 16
31 21 17 12 -31 32 -19 59 34 30 61 31 60 11 -26 -33 -143 -64 -183 -170 -215
-103 -32 -209 -43 -375 -38 -157 5 -277 27 -340 64 -15 9 -17 12 -5 7 63 -21
166 -45 224 -50 68 -7 82 0 21 11 -155 25 -222 44 -216 61 3 8 0 11 -10 7 -7
-3 -14 0 -14 6 0 6 -5 11 -11 11 -5 0 -7 -4 -4 -10 13 -20 -12 -9 -45 21 -19
17 -27 26 -17 19 18 -13 21 -7 18 32 -1 9 3 19 9 23 16 10 12 28 -6 21 -22 -8
-49 21 -35 38 8 10 2 12 -29 11 -43 -2 -57 14 -40 45 6 11 6 21 1 24 -5 4 -11
0 -14 -6 -2 -7 -14 7 -26 31 -20 38 -21 47 -10 67 10 20 10 27 -3 41 -17 19
-32 96 -21 106 9 10 23 9 23 -2z m1700 -16 c0 -8 -5 -17 -11 -21 -6 -3 -8 -17
-5 -30 6 -21 3 -24 -22 -24 -36 0 -82 21 -82 39 0 9 12 12 44 10 32 -3 42 -1
39 9 -3 6 -3 19 1 27 6 17 36 9 36 -10z m-3672 -2 c2 -8 -5 -13 -17 -13 -12 0
-21 6 -21 16 0 18 31 15 38 -3z m-518 0 c-1 -25 -14 -53 -26 -53 -8 0 -14 5
-14 11 0 5 5 7 10 4 10 -6 14 7 11 33 -1 6 3 12 9 12 5 0 10 -3 10 -7z m2300
-18 c15 -14 17 -21 9 -32 -9 -10 -9 -12 2 -8 19 7 49 -57 38 -78 -6 -9 -2 -21
11 -32 24 -21 25 -43 5 -69 -8 -11 -15 -28 -15 -38 0 -10 -4 -18 -10 -18 -15
0 -12 -38 3 -47 8 -4 17 -17 22 -28 8 -19 9 -25 14 -50 1 -5 10 1 21 15 18 24
19 24 26 6 5 -12 3 -21 -4 -24 -7 -2 -12 -10 -12 -18 0 -9 4 -13 9 -9 5 3 12
1 16 -5 3 -5 0 -10 -7 -10 -8 0 -18 -22 -25 -60 -9 -50 -9 -65 4 -90 8 -17 18
-28 23 -25 4 3 11 -2 14 -11 9 -23 26 -7 26 24 1 34 24 66 43 59 38 -15 137
-100 137 -118 0 -11 4 -18 9 -15 4 3 6 -5 4 -19 -6 -30 -58 -56 -119 -59 -24
-1 -44 0 -44 3 0 3 -4 12 -9 19 -6 10 -18 8 -57 -11 -55 -27 -119 -43 -109
-27 4 7 -13 10 -45 9 -28 -1 -56 3 -62 9 -17 17 -33 15 -18 -3 9 -11 9 -15 1
-15 -6 0 -14 6 -17 14 -3 8 -12 17 -20 20 -8 3 -12 2 -9 -4 6 -10 -24 -50 -37
-50 -5 0 -8 11 -8 25 0 25 -32 51 -50 40 -6 -3 -10 0 -10 8 0 21 12 28 27 16
15 -13 14 -14 19 26 2 16 -2 35 -8 42 -5 7 -8 24 -4 37 6 23 -14 53 -27 40 -7
-7 -2 36 8 59 4 9 11 17 15 17 5 0 7 18 5 40 -3 22 -1 40 4 40 5 0 18 23 29
51 12 28 26 48 32 44 15 -10 12 6 -6 26 -16 18 -23 81 -25 212 -1 48 3 60 23
77 30 27 126 24 158 -5z m-2202 -30 c27 -29 51 -45 67 -45 13 0 27 -4 30 -10
3 -5 16 -10 29 -10 28 0 46 -18 46 -46 0 -13 11 -31 24 -41 13 -10 26 -28 30
-38 9 -27 52 -75 67 -75 8 0 7 -5 -2 -17 -13 -15 -10 -16 32 -10 l47 6 4 -34
c2 -19 -2 -45 -8 -57 -7 -13 -10 -34 -7 -48 6 -24 6 -24 -11 -7 -35 34 -54 39
-66 16 -10 -17 -8 -21 9 -26 12 -3 21 -13 21 -23 0 -10 7 -23 15 -30 17 -14
20 -36 5 -45 -14 -9 -90 14 -90 27 0 6 8 17 17 24 16 11 15 13 -12 19 -49 11
-85 27 -85 37 0 6 12 8 27 5 15 -3 38 0 52 6 14 6 27 11 27 12 1 0 5 10 8 23
6 16 3 22 -9 22 -9 0 -13 5 -10 10 3 6 -3 10 -14 10 -11 0 -39 7 -61 16 -31
12 -40 22 -40 39 0 13 -5 27 -11 31 -8 4 -7 9 2 15 11 7 10 9 -3 9 -11 0 -18
-8 -18 -19 0 -20 -17 -31 -37 -24 -7 3 -13 9 -13 14 0 6 -10 23 -21 39 -17 23
-20 37 -15 69 6 43 -5 61 -28 42 -10 -9 -15 -8 -19 3 -4 9 2 17 14 21 19 6 19
7 -5 26 -27 21 -66 79 -66 98 0 25 38 8 78 -34z m71 15 c3 -25 3 -25 -18 -6
-26 23 -27 39 -3 34 9 -2 19 -14 21 -28z m324 -10 c24 -29 21 -37 -13 -32 -20
3 -30 10 -30 21 0 35 18 40 43 11z m118 4 c11 -14 10 -15 -11 -12 -13 1 -25 9
-28 16 -5 17 23 15 39 -4z m1341 -9 c0 -5 -5 -11 -11 -13 -6 -2 -11 4 -11 13
0 9 5 15 11 13 6 -2 11 -8 11 -13z m-2504 -7 c7 -7 12 -19 12 -27 0 -11 -4
-10 -20 4 -21 19 -26 35 -12 35 4 0 13 -5 20 -12z m4172 -6 c0 -14 -11 -21
-26 -15 -21 8 -17 23 6 23 11 0 20 -4 20 -8z m-3393 -17 c3 -9 3 -19 -1 -22
-7 -7 -36 16 -36 28 0 15 30 10 37 -6z m166 -10 c-3 -8 -15 -15 -26 -15 l-21
0 21 -20 c13 -11 47 -23 84 -29 34 -6 66 -16 70 -23 11 -18 -29 -44 -50 -31
-9 5 -27 6 -41 2 -46 -13 -60 -10 -73 19 -14 32 -27 43 -44 37 -6 -2 -17 4
-24 13 -8 9 -10 14 -5 10 4 -3 19 3 32 15 13 11 32 22 41 23 10 2 19 8 21 14
2 5 8 8 12 5 5 -3 7 -12 3 -20z m553 5 c0 -11 -6 -20 -13 -20 -17 0 -17 27 0
33 6 3 12 6 12 6 1 1 1 -8 1 -19z m2044 10 c0 -5 -4 -10 -10 -10 -5 0 -10 5
-10 10 0 6 5 10 10 10 6 0 10 -4 10 -10z m-1505 -10 c3 -5 -1 -10 -10 -10 -9
0 -13 5 -10 10 3 6 8 10 10 10 2 0 7 -4 10 -10z m-491 -6 c13 -5 12 -9 -4 -27
-23 -24 -35 -18 -25 12 7 23 7 23 29 15z m2608 -11 c10 -9 18 -23 18 -32 0
-14 -2 -14 -10 -1 -5 8 -16 15 -24 15 -9 0 -15 4 -15 9 0 5 -5 13 -13 17 -10
7 -8 9 6 9 11 0 28 -7 38 -17z m-2760 -53 c-2 -18 0 -30 7 -30 6 0 8 -7 4 -17
-4 -11 -3 -14 5 -9 7 4 12 2 12 -3 0 -15 33 -14 49 2 7 6 12 8 11 2 -2 -5 -2
-26 0 -45 1 -29 3 -31 10 -15 6 16 9 12 11 -20 3 -25 9 -39 17 -37 16 3 15
-28 -3 -52 -14 -18 -15 -18 -24 8 -6 14 -17 26 -25 26 -7 0 -17 7 -20 16 -3 8
-10 13 -15 10 -5 -4 -14 6 -19 21 -6 16 -11 22 -11 15 -2 -25 60 -159 82 -179
36 -33 49 -38 45 -17 -1 11 2 20 7 21 6 1 13 17 16 35 5 23 6 16 5 -25 -1 -68
0 -70 104 -94 58 -14 118 -18 265 -17 181 0 262 9 340 39 15 6 17 5 10 -3 -6
-7 -47 -21 -90 -33 -110 -28 -412 -32 -525 -6 -121 27 -175 53 -204 98 -29 43
-81 191 -90 254 -6 39 -6 39 10 -9 21 -67 28 -52 9 25 -19 82 -19 95 -2 80 8
-6 12 -23 9 -41z m2948 26 c0 -8 -7 -19 -15 -26 -12 -10 -16 -9 -21 4 -7 18
13 49 27 40 5 -3 9 -11 9 -18z m-2700 5 c0 -10 -30 -24 -37 -17 -3 3 -2 9 2
15 8 13 35 15 35 2z m2330 -1 c13 -8 13 -10 -2 -10 -9 0 -20 5 -23 10 -8 13 5
13 25 0z m-2122 -22 c-7 -20 -58 -23 -58 -4 0 11 10 16 31 16 20 0 29 -4 27
-12z m-365 -18 c-3 -11 -7 -20 -9 -20 -2 0 -4 9 -4 20 0 11 4 20 9 20 5 0 7
-9 4 -20z m2537 -2 c0 -3 3 -14 7 -24 5 -14 2 -16 -18 -11 -52 12 -102 35 -88
40 19 8 99 4 99 -5z m-2295 -8 c-3 -5 -11 -10 -17 -10 -6 0 -17 -8 -24 -17
-12 -17 -13 -17 -14 -1 0 17 25 37 48 38 7 0 10 -4 7 -10z m2183 -20 c34 -16
66 -30 71 -30 6 0 11 -11 11 -25 0 -38 -31 -32 -85 18 -26 23 -57 47 -69 54
-46 26 13 12 72 -17z m-2284 -5 c19 -14 18 -15 -17 -15 -35 0 -45 8 -30 23 10
11 26 8 47 -8z m2251 -26 c57 -46 75 -67 75 -86 0 -24 -28 -13 -52 20 -33 46
-76 87 -93 87 -8 0 -15 5 -15 10 0 22 38 8 85 -31z m-1430 21 c3 -5 1 -10 -4
-10 -6 0 -11 5 -11 10 0 6 2 10 4 10 3 0 8 -4 11 -10z m2152 -6 c-3 -3 -12 -4
-19 -1 -8 3 -5 6 6 6 11 1 17 -2 13 -5z m-2817 -13 c0 -6 -4 -13 -10 -16 -6
-4 -2 -15 10 -27 21 -22 19 -41 -2 -20 -7 7 -28 12 -47 12 -52 0 -64 11 -45
38 11 16 25 22 55 22 21 0 39 -4 39 -9z m331 -45 c-11 -5 -32 -5 -48 0 l-28 8
35 6 c19 4 28 8 20 9 -13 1 -13 2 0 11 11 7 19 5 28 -8 11 -14 10 -18 -7 -26z
m259 28 c0 -12 -6 -15 -22 -10 -13 3 -27 6 -31 6 -5 0 -5 5 -2 10 10 17 55 12
55 -6z m-209 -17 c-10 -9 -11 -8 -5 6 3 10 9 15 12 12 3 -3 0 -11 -7 -18z
m-533 -17 c-7 -11 -19 -20 -27 -20 -11 0 -10 5 4 20 10 11 22 20 27 20 4 0 3
-9 -4 -20z m1426 4 c3 -8 2 -12 -4 -9 -6 3 -10 10 -10 16 0 14 7 11 14 -7z
m-709 -31 c-33 -49 -48 -58 -100 -57 -28 0 -56 4 -63 8 -7 4 -25 5 -40 1 -15
-4 -23 -3 -19 2 5 4 36 13 70 18 50 8 61 14 59 27 -3 17 10 23 68 31 37 5 43
-2 25 -30z m-280 17 c3 -5 -3 -10 -14 -10 -11 0 -23 5 -26 10 -3 6 3 10 14 10
11 0 23 -4 26 -10z m1799 -9 c17 -11 39 -33 49 -50 17 -30 17 -31 0 -24 -10 4
-36 21 -57 40 -22 18 -44 33 -50 33 -6 0 -4 5 4 10 20 13 18 13 54 -9z m-2814
-12 c0 -5 -7 -9 -15 -9 -15 0 -20 12 -9 23 8 8 24 -1 24 -14z m-410 3 c0 -5
-7 -9 -15 -9 -8 0 -15 4 -15 9 0 4 7 8 15 8 8 0 15 -4 15 -8z m3880 -12 c0 -5
-7 -10 -15 -10 -8 0 -15 5 -15 10 0 6 7 10 15 10 8 0 15 -4 15 -10z m-3277
-70 c-5 -52 -4 -60 11 -60 9 0 16 5 16 10 0 21 20 9 26 -15 5 -20 0 -30 -20
-46 -14 -11 -26 -29 -26 -41 0 -35 -24 -13 -39 36 -13 40 -13 54 -2 94 8 26
15 56 16 67 2 11 4 21 4 23 1 2 5 0 11 -3 6 -3 7 -30 3 -65z m3078 -53 c1 -31
6 -57 10 -57 5 0 9 5 9 11 0 6 6 9 12 7 14 -5 31 9 41 32 4 8 5 -7 3 -34 -2
-27 -8 -51 -13 -55 -6 -3 -13 -33 -17 -66 -4 -33 -11 -64 -16 -69 -6 -6 -10
-19 -10 -29 0 -20 -34 -70 -42 -62 -3 3 -26 -15 -52 -39 -51 -47 -59 -82 -18
-80 27 1 28 -13 2 -46 -32 -41 -23 -59 10 -20 16 19 30 38 30 41 0 4 16 41 35
83 25 54 39 75 48 69 6 -4 18 -8 26 -9 21 -4 145 -45 161 -55 8 -5 40 -22 70
-38 30 -17 77 -51 105 -76 27 -25 53 -45 58 -45 6 0 124 -109 159 -147 35 -37
98 -125 98 -136 0 -7 10 -28 23 -47 24 -35 56 -96 94 -180 68 -147 68 -149 79
-240 16 -133 16 -140 4 -140 -7 0 -9 -8 -5 -22 11 -37 11 -42 -5 -44 -29 -2
-31 -4 -18 -18 7 -8 17 -12 21 -9 5 3 11 -4 14 -16 3 -12 9 -21 13 -21 11 0 9
-72 -3 -87 -6 -9 -6 -18 2 -26 6 -8 8 -16 5 -20 -3 -3 -1 -21 5 -39 16 -47 19
-264 4 -279 -6 -6 -30 -11 -52 -11 -23 0 -39 -3 -36 -8 3 -5 1 -11 -4 -14 -11
-7 -80 35 -81 49 0 6 -13 15 -29 21 -28 11 -28 12 -33 115 -8 145 -19 170
-104 243 -45 39 -84 84 -107 123 -71 120 -216 275 -409 436 -33 28 -56 53 -49
55 7 2 6 9 -5 19 -8 9 -13 22 -9 31 3 9 -5 26 -19 41 -13 14 -39 55 -57 91
-18 36 -43 82 -57 104 -21 34 -23 46 -18 110 l5 71 -12 -48 c-7 -27 -20 -53
-30 -58 -9 -6 -17 -16 -17 -24 0 -8 -5 -17 -11 -20 -7 -5 -9 10 -5 47 2 29 7
103 11 163 9 153 9 156 43 149 26 -5 29 -1 61 68 18 40 33 75 33 78 0 3 9 16
20 30 l20 25 -27 3 c-17 2 -29 12 -35 28 -5 13 -14 24 -20 24 -18 0 -33 53
-21 72 6 10 11 24 11 32 0 8 15 23 33 35 30 19 33 19 49 3 13 -12 18 -35 19
-75z m-2501 52 c0 -5 11 -9 25 -9 14 0 25 -5 25 -10 0 -7 6 -7 18 -1 13 7 36
6 73 -4 41 -11 55 -12 61 -2 8 14 11 11 31 -29 19 -38 13 -70 -16 -79 -19 -7
-18 -8 13 -14 33 -6 31 -7 -25 -13 -42 -5 -62 -3 -67 5 -6 9 -8 8 -8 -3 0 -13
-1 -13 -10 0 -9 13 -11 13 -20 0 -8 -13 -10 -13 -10 2 0 10 -9 22 -21 28 -11
7 -18 17 -15 25 3 9 -4 12 -25 11 -16 -1 -35 4 -41 11 -6 7 -16 13 -23 13 -19
0 -41 61 -29 81 5 9 64 -2 64 -12z m-1044 -24 c14 -14 22 -29 19 -35 -3 -5
-15 0 -25 10 -11 11 -29 20 -40 20 -22 0 -27 15 -7 23 22 9 28 7 53 -18z m299
14 c11 -17 0 -20 -21 -4 -17 13 -17 14 -2 15 9 0 20 -5 23 -11z m90 -12 c18
-14 13 -37 -8 -37 -7 0 -20 12 -30 25 -17 24 -17 25 1 25 10 0 26 -6 37 -13z
m-474 -18 c18 -12 38 -19 50 -16 13 4 22 0 26 -11 4 -9 15 -29 26 -43 15 -21
17 -31 8 -47 -18 -34 -13 -61 14 -74 35 -16 32 -38 -5 -38 -16 0 -30 -4 -30
-9 0 -6 -10 -8 -22 -6 -12 3 -25 0 -29 -6 -5 -8 -15 -8 -35 -1 -32 11 -24 16
39 27 43 7 56 27 33 50 -15 15 -16 15 -16 -1 0 -14 -2 -15 -17 -3 -9 8 -14 9
-10 3 8 -14 -17 -26 -38 -18 -8 3 -17 15 -20 25 -4 11 -18 24 -31 29 -13 5
-24 16 -24 24 0 8 -6 17 -12 20 -7 3 5 3 27 0 22 -3 45 -9 50 -14 6 -4 22 -5
38 -3 15 2 36 -1 47 -7 23 -12 25 -5 8 32 -12 26 -42 38 -93 38 -12 0 -30 9
-41 21 -18 20 -18 21 1 35 24 18 21 18 56 -7z m3761 -4 c0 -5 -5 -11 -11 -13
-6 -2 -11 4 -11 13 0 9 5 15 11 13 6 -2 11 -8 11 -13z m-309 -46 c-7 -7 -8
-21 -3 -38 10 -37 -14 -96 -36 -87 -11 4 -15 2 -11 -8 6 -15 -16 -30 -27 -19
-3 4 -6 24 -6 46 0 34 6 45 43 78 38 35 66 54 40 28z m-2777 -131 c-1 -42 -4
-80 -7 -83 -4 -3 -14 10 -23 29 -21 45 -21 120 1 141 24 25 31 4 29 -87z m814
92 c12 -8 11 -10 -7 -10 -13 0 -23 5 -23 10 0 13 11 13 30 0z m-1740 -10 c0
-5 -4 -10 -10 -10 -5 0 -10 5 -10 10 0 6 5 10 10 10 6 0 10 -4 10 -10z m1683
-7 c-7 -2 -19 -2 -25 0 -7 3 -2 5 12 5 14 0 19 -2 13 -5z m834 -55 c-3 -8 -6
-5 -6 6 -1 11 2 17 5 13 3 -3 4 -12 1 -19z m973 -8 c-14 -4 -38 -8 -55 -8 -29
1 -29 1 5 8 50 11 83 11 50 0z m-3320 -26 c13 -13 11 -14 -18 -8 -23 5 -32 3
-32 -7 0 -9 -3 -10 -10 -3 -6 6 -8 18 -4 28 7 19 39 14 64 -10z m1888 -58 c-5
-17 -12 -38 -14 -46 -4 -10 -7 -11 -12 -3 -4 7 -24 13 -45 15 -30 2 -37 6 -37
22 0 20 44 66 62 66 5 0 6 5 2 12 -4 6 -3 8 4 4 6 -3 14 -1 18 6 14 23 33 -42
22 -76z m500 59 c-3 -3 -9 2 -12 12 -6 14 -5 15 5 6 7 -7 10 -15 7 -18z m535
8 c-7 -2 -21 -2 -30 0 -10 3 -4 5 12 5 17 0 24 -2 18 -5z m280 0 c-7 -2 -19
-2 -25 0 -7 3 -2 5 12 5 14 0 19 -2 13 -5z m-196 -9 c-3 -3 -12 -4 -19 -1 -8
3 -5 6 6 6 11 1 17 -2 13 -5z m96 -1 c-7 -2 -19 -2 -25 0 -7 3 -2 5 12 5 14 0
19 -2 13 -5z m-2409 -40 c3 -21 17 -60 31 -87 23 -45 26 -94 6 -82 -14 9 -71
133 -71 154 0 26 10 52 20 52 4 0 10 -17 14 -37z m2696 -9 c0 -27 -4 -43 -10
-39 -17 11 -11 85 7 85 2 0 3 -21 3 -46z m167 -6 c-2 -13 -4 -5 -4 17 -1 22 1
32 4 23 2 -10 2 -28 0 -40z m-3534 -41 c-1 -18 3 -27 13 -27 8 0 14 -4 14 -10
0 -18 -20 -11 -45 16 -25 27 -23 57 4 52 11 -3 15 -13 14 -31z m1951 18 c3 -8
1 -15 -4 -15 -6 0 -10 7 -10 15 0 8 2 15 4 15 2 0 6 -7 10 -15z m1976 11 c0
-11 -19 -15 -25 -6 -3 5 1 10 9 10 9 0 16 -2 16 -4z m-3689 -76 c25 -14 24
-30 -1 -30 -10 0 -24 9 -30 20 -12 23 -1 27 31 10z m469 -122 c0 -4 -6 -5 -13
-2 -7 2 -13 12 -13 22 -1 9 -4 26 -8 37 -4 11 2 4 13 -15 11 -19 20 -38 21
-42z m-625 52 c3 -5 2 -10 -4 -10 -5 0 -13 5 -16 10 -3 6 -2 10 4 10 5 0 13
-4 16 -10z m-197 -112 c17 -17 15 -28 -6 -28 -11 0 -27 9 -37 20 -18 19 -17
20 6 20 14 0 30 -5 37 -12z m872 -38 c-13 -8 -13 -10 2 -10 20 0 33 -21 43
-69 7 -31 6 -33 -9 -20 -22 18 -32 28 -57 59 -17 21 -20 22 -17 6 1 -10 -3
-21 -9 -23 -22 -8 -16 61 6 77 11 7 17 18 14 24 -3 6 5 1 18 -12 20 -19 22
-24 9 -32z m-10 -189 c0 -5 -9 -11 -20 -14 -13 -3 -20 0 -20 9 0 8 9 14 20 14
11 0 20 -4 20 -9z m-262 -44 c2 -10 -3 -17 -12 -17 -10 0 -16 9 -16 21 0 24
23 21 28 -4z m105 12 c14 -6 30 -28 39 -53 l16 -43 -42 8 c-22 5 -44 8 -48 9
-9 0 -5 90 4 90 4 0 18 -5 31 -11z m101 -25 c8 -22 9 -21 -19 -21 -28 0 -30 2
-12 22 16 19 24 18 31 -1z m-859 -104 c3 -5 -1 -10 -9 -10 -9 0 -16 5 -16 10
0 6 4 10 9 10 6 0 13 -4 16 -10z m3265 -10 c0 -6 11 -16 25 -22 20 -9 23 -16
19 -37 -4 -14 -13 -31 -20 -37 -8 -6 -14 -23 -14 -37 0 -14 -5 -29 -11 -32 -6
-4 -8 -14 -4 -22 6 -18 -22 -66 -35 -58 -4 3 -6 -3 -3 -14 4 -15 -1 -18 -24
-18 -15 1 -43 -2 -60 -7 -26 -6 -32 -5 -28 6 6 16 -26 55 -45 55 -10 0 -15
-11 -16 -29 -1 -21 3 -28 12 -24 8 3 14 -1 14 -8 0 -26 24 -35 65 -26 47 11
55 5 48 -33 -5 -27 -7 -28 -48 -22 -34 6 -43 4 -49 -10 -3 -9 -4 -20 -1 -24 2
-5 -6 -6 -19 -4 -15 3 -25 -1 -29 -11 -4 -11 -1 -16 10 -16 9 0 13 -3 10 -7
-4 -3 -2 -12 4 -19 8 -10 6 -25 -6 -58 -10 -25 -15 -53 -11 -62 4 -11 -1 -22
-14 -31 -11 -8 -20 -18 -20 -24 0 -14 28 -11 32 3 3 7 5 -4 6 -25 1 -25 -4
-40 -13 -43 -10 -4 -13 -14 -9 -29 3 -13 1 -26 -4 -29 -6 -3 -30 -47 -53 -97
-34 -71 -47 -89 -61 -86 -13 4 -19 -3 -24 -29 -5 -25 -11 -34 -26 -34 -16 0
-19 -5 -14 -23 4 -16 -1 -31 -13 -44 -10 -11 -22 -30 -26 -44 -8 -23 -8 -23
-15 -4 -7 18 -9 17 -21 -10 -8 -16 -18 -33 -23 -37 -10 -7 -40 19 -49 42 -4
12 -6 12 -6 -1 -1 -18 -27 -33 -42 -23 -5 3 -9 -3 -9 -13 0 -22 -36 -48 -46
-32 -6 10 -31 7 -70 -8 -12 -5 -15 -3 -9 6 5 10 2 11 -14 6 -13 -4 -28 -1 -38
7 -13 10 -17 10 -20 1 -7 -19 -23 -16 -23 3 0 13 -3 14 -15 4 -12 -10 -15 -8
-20 12 -4 16 -14 24 -31 26 -25 2 -45 -24 -27 -37 12 -8 14 -49 3 -56 -5 -3
-11 -1 -15 5 -10 16 -36 12 -50 -7 -12 -16 -15 -16 -33 7 -15 18 -17 29 -10
38 7 8 7 12 -1 12 -6 0 -11 -4 -11 -9 0 -5 -13 -16 -29 -24 -29 -15 -30 -14
-40 15 -9 25 -13 28 -31 18 -11 -6 -18 -15 -15 -21 4 -5 -3 -9 -14 -9 -27 0
-35 17 -17 36 18 17 21 44 6 44 -5 0 -10 -7 -10 -17 0 -9 -3 -13 -7 -10 -3 4
-21 -4 -39 -18 -23 -17 -34 -21 -37 -12 -3 7 -6 4 -6 -6 -1 -10 -6 -15 -11
-12 -6 4 -8 10 -5 15 5 8 0 20 -22 59 -2 2 -10 -2 -19 -10 -16 -13 -17 -12
-12 8 4 13 0 27 -8 34 -11 9 -14 7 -15 -12 l0 -24 -11 23 c-6 12 -22 25 -35
28 -12 4 -23 11 -23 16 0 5 -10 23 -21 40 -16 22 -20 39 -16 67 3 23 -1 44 -9
56 -8 10 -14 15 -14 11 0 -5 -7 -3 -15 4 -19 16 -19 35 1 55 15 15 15 17 -2
30 -15 11 -16 16 -7 26 12 12 1 42 -32 88 -5 8 -10 35 -10 60 0 38 -4 46 -21
51 -16 4 -21 11 -18 33 1 15 -2 27 -7 27 -5 0 -9 7 -9 15 0 8 4 15 10 15 5 0
7 7 4 15 -4 10 3 18 20 25 29 11 33 22 12 39 -11 10 -16 8 -20 -7 -8 -23 -40
-34 -55 -19 -6 6 -5 17 6 33 14 22 14 24 -3 24 -28 0 -49 37 -33 56 11 13 9
14 -14 9 -19 -5 -32 -1 -48 14 -13 12 -19 21 -15 21 5 0 3 7 -4 15 -6 8 -9 19
-5 25 4 6 -1 33 -11 61 -14 39 -16 54 -7 68 9 14 9 21 0 30 -6 6 -7 11 -3 11
5 0 3 7 -4 15 -10 12 -9 16 4 21 9 3 23 0 32 -7 13 -10 17 -10 25 2 8 13 13 6
10 -13 0 -5 3 -8 9 -8 18 0 25 -3 39 -18 13 -12 16 -12 26 2 16 22 25 20 25
-4 0 -13 -10 -24 -26 -30 -25 -10 -25 -12 -11 -33 8 -13 16 -31 18 -42 4 -17
7 -16 34 10 16 17 36 30 45 30 8 0 16 10 18 23 2 12 8 22 13 22 6 0 7 -5 3
-11 -4 -8 -1 -8 12 -1 27 13 44 4 44 -24 0 -14 7 -27 15 -30 10 -4 13 -14 9
-29 -3 -13 -1 -32 4 -42 7 -12 7 -24 0 -38 -10 -18 -10 -19 6 -6 14 12 16 12
10 -2 -3 -9 -14 -19 -25 -22 -19 -6 -27 -25 -11 -25 5 0 14 -11 20 -25 13 -28
-2 -65 -25 -65 -17 0 -17 17 0 23 7 4 3 8 -10 12 -13 4 -23 13 -23 20 0 6 -10
20 -22 31 -13 10 -17 12 -11 4 7 -8 13 -22 13 -33 0 -14 -5 -17 -21 -12 -19 6
-20 5 -9 -15 8 -16 9 -29 2 -44 -8 -18 -5 -26 14 -45 28 -27 31 -41 8 -41 -13
0 -14 -3 -4 -14 6 -8 18 -12 26 -9 9 3 17 -5 24 -22 5 -14 22 -42 37 -61 14
-20 37 -57 49 -85 20 -43 27 -49 54 -49 16 0 30 -5 30 -11 0 -5 4 -8 9 -5 5 3
11 -1 15 -9 3 -8 11 -15 19 -15 7 0 24 -11 37 -25 13 -14 32 -25 43 -25 13 0
17 -5 13 -16 -5 -12 -1 -14 15 -9 18 6 20 4 14 -17 -4 -12 -4 -20 0 -16 4 4
15 3 25 -2 28 -15 100 -29 100 -19 0 5 -4 9 -10 9 -20 0 -50 41 -50 69 0 24 4
29 27 29 15 0 29 5 31 12 3 9 6 9 12 1 9 -15 100 -20 101 -6 0 6 3 5 5 -2 3
-7 11 -10 19 -7 7 3 24 0 37 -7 13 -7 27 -12 31 -11 4 1 16 -2 26 -8 13 -6 29
-6 51 2 26 8 34 8 41 -3 8 -12 11 -11 20 4 10 18 11 18 26 0 14 -17 14 -17 10
5 -4 17 1 26 24 37 16 9 29 22 29 31 0 8 7 17 15 20 8 4 15 12 15 20 0 17 16
18 24 2 3 -7 5 -4 4 7 -1 11 4 31 12 45 14 27 60 66 72 63 4 -2 15 10 24 27
14 22 21 27 35 20 12 -7 19 -5 22 5 3 7 1 16 -6 18 -7 3 8 24 36 49 45 43 61
78 35 78 -16 0 -48 -31 -48 -47 0 -7 -4 -13 -10 -13 -5 0 -10 -5 -10 -11 0
-20 -44 -48 -58 -37 -19 16 -28 0 -13 -24 10 -17 10 -19 -1 -16 -19 7 -38 50
-29 66 11 20 -19 49 -43 44 -13 -4 -17 -1 -12 6 4 7 13 12 21 12 8 0 13 12 12
35 -1 26 -5 35 -18 35 -11 0 -19 -9 -21 -22 -2 -15 -9 -22 -19 -20 -9 1 -22
-5 -29 -13 -9 -11 -9 -15 -1 -15 9 0 9 -5 1 -21 -9 -15 -15 -18 -25 -9 -10 8
-23 7 -52 -5 -50 -22 -90 -28 -97 -16 -4 5 -18 7 -33 5 -15 -3 -37 0 -50 7
-28 15 -41 6 -23 -16 14 -17 8 -31 -9 -20 -6 3 -9 11 -6 16 4 5 -7 9 -24 9
-16 0 -33 4 -36 10 -6 10 -67 6 -85 -5 -5 -3 -11 -1 -15 5 -4 6 -11 8 -16 5
-5 -4 -22 2 -38 11 -25 15 -27 19 -15 31 8 9 12 24 8 38 -5 19 -1 24 23 29 51
11 138 -1 141 -18 2 -9 8 -16 14 -16 5 0 8 6 5 13 -3 9 6 13 29 14 19 1 34 -3
34 -9 0 -5 6 -6 13 -1 6 4 20 6 30 5 10 -2 29 4 43 12 13 9 27 16 30 15 4 0
10 3 13 8 12 17 57 41 91 48 58 12 108 45 115 75 7 33 51 79 99 105 20 11 36
22 36 25 0 3 19 4 42 4 24 -1 45 2 48 7 4 5 45 9 93 10 48 1 87 5 87 9 0 5 9
12 20 15 11 4 18 10 16 14 -3 4 9 8 26 8 18 0 34 5 36 11 5 15 22 16 22 2z
m1505 -10 c-3 -5 -11 -10 -16 -10 -6 0 -7 5 -4 10 3 6 11 10 16 10 6 0 7 -4 4
-10z m-4080 -14 c11 -7 23 -14 28 -15 4 0 7 -3 8 -6 2 -16 -11 -23 -53 -27
l-48 -6 0 34 c0 29 4 34 23 34 12 0 31 -6 42 -14z m-524 -26 c18 0 33 -26 23
-41 -3 -6 -11 -5 -20 2 -11 9 -14 9 -14 -1 0 -9 -5 -8 -18 3 -24 22 -32 21
-32 -3 0 -11 6 -20 14 -20 24 0 63 -25 58 -38 -2 -6 -20 -12 -40 -13 -20 0
-31 -3 -24 -6 6 -2 10 -9 7 -14 -8 -13 -34 13 -28 28 3 7 -6 18 -20 24 -14 6
-31 22 -38 35 -11 21 -10 26 7 39 10 8 29 15 42 15 12 0 22 5 22 11 0 5 10 3
22 -5 12 -9 30 -16 39 -16z m-223 -2 c-14 -21 -58 -38 -58 -23 0 11 26 33 46
38 10 2 21 5 23 6 2 0 -3 -9 -11 -21z m607 13 c-3 -5 -1 -12 5 -16 5 -3 10 -1
10 5 0 6 5 8 11 4 8 -4 7 -9 -2 -15 -12 -8 -11 -11 1 -19 9 -6 10 -10 3 -10
-6 0 -19 -3 -29 -7 -10 -4 -15 -2 -11 3 3 6 2 16 -3 24 -5 9 -5 19 2 27 12 15
22 18 13 4z m1923 -31 c21 -37 30 -38 38 -3 l7 26 18 -21 c19 -25 15 -56 -11
-75 -9 -7 -20 -25 -24 -40 -8 -35 -39 -47 -117 -47 -46 0 -59 3 -59 15 0 8 -4
15 -10 15 -5 0 -10 -4 -10 -9 0 -13 -36 -20 -51 -10 -7 4 -19 3 -26 -2 -6 -6
-27 -9 -45 -7 -25 2 -36 10 -46 31 -12 25 -12 35 3 73 19 50 40 60 110 50 31
-5 46 -13 50 -27 8 -26 19 -24 33 5 6 15 23 27 41 31 17 4 33 11 36 16 13 19
46 8 63 -21z m187 20 c-3 -5 1 -10 10 -10 12 0 15 -5 11 -16 -3 -9 -6 -22 -6
-30 0 -9 -5 -12 -10 -9 -6 3 -13 -1 -16 -9 -3 -9 -17 -16 -30 -16 -33 0 -31
31 4 69 26 28 50 42 37 21z m-2665 -20 c0 -5 -4 -10 -10 -10 -5 0 -10 5 -10
10 0 6 5 10 10 10 6 0 10 -4 10 -10z m763 4 c9 -9 -4 -35 -14 -28 -5 3 -9 12
-9 20 0 14 12 19 23 8z m-843 -34 c0 -5 -4 -10 -10 -10 -5 0 -10 5 -10 10 0 6
5 10 10 10 6 0 10 -4 10 -10z m700 -20 c11 -11 20 -24 20 -30 0 -19 28 -10 33
10 9 34 77 23 77 -12 0 -12 -4 -17 -12 -12 -7 5 -9 2 -6 -7 4 -11 -3 -15 -33
-15 -22 0 -39 2 -39 6 0 4 -20 15 -44 25 -39 16 -45 25 -37 53 3 8 24 -1 41
-18z m-664 -47 c-11 -11 -17 4 -9 23 7 18 8 18 11 1 2 -10 1 -21 -2 -24z
m-201 15 c6 0 20 3 33 6 13 3 20 1 17 -5 -4 -5 -11 -6 -17 -3 -7 5 -9 1 -5 -9
6 -17 -8 -34 -17 -19 -9 15 -64 13 -70 -3 -7 -19 -36 -20 -36 0 0 28 1 30 15
27 7 -1 17 2 20 9 4 6 17 8 29 4 11 -3 26 -6 31 -7z m229 1 c-3 -6 0 -15 7
-20 7 -4 10 -11 6 -16 -9 -8 -27 15 -27 35 0 6 5 12 11 12 5 0 7 -5 3 -11z
m-64 -29 c0 -5 -4 -10 -10 -10 -5 0 -10 5 -10 10 0 6 5 10 10 10 6 0 10 -4 10
-10z m-430 -15 c0 -8 -4 -15 -10 -15 -5 0 -10 7 -10 15 0 8 5 15 10 15 6 0 10
-7 10 -15z m46 -4 c46 5 55 0 44 -21 -6 -11 -20 -20 -31 -20 -11 0 -17 5 -14
10 8 13 -1 13 -24 1 -15 -9 -17 -6 -13 21 3 16 8 25 11 19 4 -6 16 -11 27 -10z
m521 -7 c7 -21 -23 -22 -36 -2 -11 17 -10 19 10 16 12 -2 24 -8 26 -14z m-137
-15 c0 -14 -17 -10 -23 5 -4 10 -1 13 9 9 7 -3 14 -9 14 -14z m3448 1 c-7 -10
-14 -18 -15 -16 -6 6 9 36 18 36 5 0 4 -9 -3 -20z m-3415 -20 c-5 -19 -23 -29
-23 -12 0 7 20 32 26 32 1 0 0 -9 -3 -20z m-138 -10 c3 -5 -3 -10 -14 -10 -12
0 -21 5 -21 10 0 6 6 10 14 10 8 0 18 -4 21 -10z m670 -15 c14 -13 25 -27 25
-30 0 -11 -55 8 -67 23 -31 39 5 45 42 7z m-565 5 c0 -5 -7 -10 -16 -10 -8 0
-12 5 -9 10 3 6 10 10 16 10 5 0 9 -4 9 -10z m-400 -4 c0 -3 -4 -8 -10 -11 -5
-3 -10 -1 -10 4 0 6 5 11 10 11 6 0 10 -2 10 -4z m1190 -12 c0 -8 -5 -12 -10
-9 -6 4 -8 11 -5 16 9 14 15 11 15 -7z m1825 -4 c-27 -12 -43 -12 -25 0 8 5
22 9 30 9 10 0 8 -3 -5 -9z m-1980 -9 c3 -5 2 -12 -3 -15 -5 -3 -9 1 -9 9 0
17 3 19 12 6z m1710 -1 c3 -5 -3 -10 -15 -10 -12 0 -18 5 -15 10 3 6 10 10 15
10 5 0 12 -4 15 -10z m175 0 c0 -5 -5 -10 -11 -10 -5 0 -7 5 -4 10 3 6 8 10
11 10 2 0 4 -4 4 -10z m-2407 -9 c4 -1 7 -6 7 -12 0 -14 -52 -7 -58 9 -2 8 4
11 20 8 12 -3 26 -5 31 -5z m2310 2 c-13 -2 -33 -2 -45 0 -13 2 -3 4 22 4 25
0 35 -2 23 -4z m-2823 -22 c0 -11 5 -23 10 -26 6 -4 10 5 10 19 0 28 17 35 26
11 5 -12 20 -14 74 -11 37 2 72 1 77 -3 17 -11 20 -35 6 -49 -20 -20 -16 -32
12 -32 16 0 25 -6 25 -16 0 -10 6 -14 14 -11 14 6 63 -7 98 -24 10 -5 25 -9
33 -9 8 0 15 -7 15 -15 0 -10 -9 -15 -27 -14 -16 0 -38 -2 -50 -6 -14 -5 -23
-3 -23 4 0 5 -7 8 -15 5 -10 -4 -13 -2 -10 8 4 9 -2 14 -15 15 -11 1 -20 -3
-20 -9 0 -6 -13 -8 -30 -6 -17 3 -30 0 -31 -6 0 -6 -4 -2 -9 9 -6 13 -9 15 -9
5 -2 -31 -21 14 -21 50 -1 34 -1 34 -16 15 -11 -14 -18 -16 -21 -7 -3 6 -12
12 -20 12 -11 0 -14 7 -11 25 4 20 1 26 -16 30 -36 7 -56 2 -56 -13 0 -25 -7
-10 -14 31 -4 23 -3 37 4 37 5 0 10 -9 10 -19z m2490 -9 c0 -5 -7 -17 -15 -28
-14 -19 -14 -19 -15 2 0 11 3 24 7 27 9 10 23 9 23 -1z m78 -33 c2 -13 11 -28
19 -33 13 -7 13 -10 2 -17 -16 -9 -39 7 -39 28 0 10 -7 14 -20 10 -23 -6 -24
-3 -8 22 16 25 42 20 46 -10z m-1384 -8 c3 -5 -3 -20 -15 -32 -11 -13 -17 -18
-13 -10 3 7 1 17 -6 21 -7 4 -9 13 -6 19 9 13 33 15 40 2z m-864 -21 c0 -8
-57 -19 -64 -12 -3 2 -3 9 0 16 5 13 64 9 64 -4z m685 0 c3 -5 1 -10 -4 -10
-6 0 -11 5 -11 10 0 6 2 10 4 10 3 0 8 -4 11 -10z m-510 -17 c-6 -15 -11 -34
-14 -52 -2 -8 -30 34 -31 44 0 6 5 3 10 -5 8 -13 10 -13 10 2 0 14 10 23 29
27 2 1 0 -7 -4 -16z m598 -118 c-15 -30 -29 -53 -31 -51 -2 2 4 18 13 36 9 18
14 34 11 37 -5 5 21 31 31 33 2 0 -9 -25 -24 -55z m1642 25 c3 -5 1 -10 -4
-10 -6 0 -11 5 -11 10 0 6 2 10 4 10 3 0 8 -4 11 -10z m235 -24 c0 -3 -4 -8
-10 -11 -5 -3 -10 -1 -10 4 0 6 5 11 10 11 6 0 10 -2 10 -4z m-2875 -41 c0
-11 -7 -20 -15 -20 -8 0 -15 5 -15 10 0 6 -4 16 -9 23 -6 10 -2 13 15 10 16
-2 24 -10 24 -23z m-48 -17 c1 -10 -5 -18 -13 -18 -8 0 -14 -8 -14 -17 0 -13
-3 -14 -12 -5 -7 7 -18 12 -25 12 -8 0 -24 9 -36 21 l-22 21 35 -7 c19 -4 37
-11 38 -16 6 -16 22 -9 22 9 0 10 6 19 13 19 7 0 14 -9 14 -19z m273 -8 c0 -5
-4 -10 -10 -10 -5 0 -10 5 -10 10 0 6 5 10 10 10 6 0 10 -4 10 -10z m660 -27
c0 -16 -6 -23 -19 -23 -14 0 -18 7 -17 24 1 33 36 31 36 -1z m-60 -20 c0 -17
-8 -16 -26 1 -12 13 -12 15 6 13 11 -1 20 -7 20 -14z m1237 -15 c-3 -8 -6 -5
-6 6 -1 11 2 17 5 13 3 -3 4 -12 1 -19z m-1201 -48 c5 1 9 -3 11 -9 1 -7 -1
-7 -3 -2 -3 6 -12 7 -20 4 -9 -3 -14 1 -14 13 0 14 2 16 9 6 4 -8 12 -13 17
-12z m5 -55 c-36 -39 -88 -100 -115 -138 -28 -37 -54 -67 -60 -67 -6 0 -5 5 2
12 8 8 8 15 1 24 -6 8 -7 14 0 18 5 4 13 2 16 -4 4 -6 33 22 65 62 31 40 72
86 89 102 20 19 29 36 26 47 -4 13 0 17 19 15 22 -1 18 -7 -43 -71z m2079 55
c-20 -13 -33 -13 -25 0 3 6 14 10 23 10 15 0 15 -2 2 -10z m-2209 -37 c16 -16
29 -31 29 -34 0 -4 -14 -9 -32 -11 -46 -7 -94 50 -55 65 22 10 29 7 58 -20z
m1360 -4 c23 -23 17 -39 -9 -23 -16 11 -30 44 -18 44 3 0 15 -9 27 -21z m534
11 c3 -6 -1 -7 -9 -4 -18 7 -21 14 -7 14 6 0 13 -4 16 -10z m80 -10 c3 -5 2
-10 -4 -10 -5 0 -13 5 -16 10 -3 6 -2 10 4 10 5 0 13 -4 16 -10z m203 2 c9 -6
7 -14 -9 -31 -18 -19 -29 -22 -57 -18 -19 4 -37 9 -40 12 -9 9 20 25 45 25 12
0 25 5 28 10 7 12 16 12 33 2z m-124 -14 c-7 -12 -54 -10 -54 2 0 6 13 9 29 8
16 -1 27 -6 25 -10z m96 -58 c0 -5 -7 -10 -15 -10 -8 0 -15 5 -15 10 0 6 7 10
15 10 8 0 15 -4 15 -10z m-340 -30 c0 -5 -5 -10 -11 -10 -5 0 -7 5 -4 10 3 6
8 10 11 10 2 0 4 -4 4 -10z m770 -135 c0 -8 -4 -15 -10 -15 -5 0 -7 7 -4 15 4
8 8 15 10 15 2 0 4 -7 4 -15z m-2644 -23 c-17 -16 -18 -16 -5 5 7 12 15 20 18
17 3 -2 -3 -12 -13 -22z m-157 -86 c9 -11 7 -15 -8 -19 -19 -5 -41 9 -41 25 0
13 37 9 49 -6z m121 11 c0 -2 -10 -12 -22 -23 l-23 -19 19 23 c18 21 26 27 26
19z m797 -83 c-3 -3 -12 -4 -19 -1 -8 3 -5 6 6 6 11 1 17 -2 13 -5z m1331 -25
c-3 -8 -7 -3 -11 10 -4 17 -3 21 5 13 5 -5 8 -16 6 -23z m-118 -73 c0 -11 -19
-15 -25 -6 -3 5 1 10 9 10 9 0 16 -2 16 -4z m751 -91 c13 9 11 0 -12 -50 -23
-49 -30 -53 -54 -29 -15 15 -14 18 6 40 12 13 26 21 32 17 6 -3 7 -1 3 6 -4 7
-4 20 0 29 7 16 7 16 11 -1 3 -9 9 -15 14 -12z m-3161 -15 c0 -5 -2 -10 -4
-10 -3 0 -8 5 -11 10 -3 6 -1 10 4 10 6 0 11 -4 11 -10z m3197 -18 c-10 -10
-17 -24 -17 -30 0 -6 -11 -31 -25 -56 -30 -54 -31 -59 -5 -51 15 5 18 3 14 -9
-3 -8 -15 -16 -27 -18 -11 -2 -22 -9 -25 -16 -2 -7 2 -10 11 -6 29 11 27 -15
-5 -75 -29 -55 -53 -79 -66 -67 -2 3 3 17 12 31 21 32 14 32 -20 0 -15 -14
-33 -24 -40 -21 -7 3 -10 -2 -7 -13 3 -14 -2 -20 -21 -23 -28 -6 -36 6 -11 16
24 9 18 28 -6 21 -15 -5 -19 -4 -15 4 4 6 18 11 32 11 25 0 34 25 12 32 -8 3
0 17 20 36 18 18 37 30 43 27 5 -4 9 -2 9 4 0 6 14 26 30 44 17 19 30 41 30
49 0 9 9 27 20 41 11 14 20 28 20 32 0 13 42 66 48 61 3 -3 -2 -14 -11 -24z
m-3177 -2 c-8 -5 -19 -10 -25 -10 -5 0 -3 5 5 10 8 5 20 10 25 10 6 0 3 -5 -5
-10z m3160 -95 c-7 -9 -15 -13 -18 -10 -3 2 1 11 8 20 7 9 15 13 18 10 3 -2
-1 -11 -8 -20z m-1720 -289 c0 -3 -4 -8 -10 -11 -5 -3 -10 -1 -10 4 0 6 5 11
10 11 6 0 10 -2 10 -4z m1550 -40 c0 -16 -7 -27 -21 -31 -16 -5 -18 -10 -9
-20 17 -20 3 -35 -31 -35 -16 0 -29 -4 -29 -10 0 -5 -7 -7 -15 -4 -8 4 -15 12
-15 20 0 8 7 14 15 14 8 0 15 5 15 10 0 6 7 10 15 10 8 0 15 5 15 11 0 13 40
56 53 58 4 1 7 -10 7 -23z m885 -106 c8 -13 -5 -13 -25 0 -13 8 -13 10 2 10 9
0 20 -4 23 -10z m50 -30 c3 -5 2 -10 -4 -10 -5 0 -13 5 -16 10 -3 6 -2 10 4
10 5 0 13 -4 16 -10z m200 -38 c-8 -8 -25 10 -25 26 0 13 2 13 14 -4 8 -10 13
-21 11 -22z m-145 12 c0 -2 -7 -4 -15 -4 -8 0 -15 4 -15 10 0 5 7 7 15 4 8 -4
15 -8 15 -10z m55 -14 c3 -5 2 -10 -4 -10 -5 0 -13 5 -16 10 -3 6 -2 10 4 10
5 0 13 -4 16 -10z m-285 -134 c0 -3 -4 -8 -10 -11 -5 -3 -10 -1 -10 4 0 6 5
11 10 11 6 0 10 -2 10 -4z m-40 -36 c0 -5 -8 -10 -17 -10 -15 0 -16 2 -3 10
19 12 20 12 20 0z m-50 -30 c0 -5 -8 -10 -17 -10 -15 0 -16 2 -3 10 19 12 20
12 20 0z"/>
<path d="M105 5600 c-7 -22 11 -53 26 -44 14 8 11 40 -5 53 -11 10 -16 8 -21
-9z"/>
<path d="M706 4894 c-2 -6 4 -16 15 -22 15 -10 17 -9 12 5 -5 13 -3 15 13 8
10 -4 36 -11 57 -15 46 -9 47 -10 51 -46 2 -21 9 -30 25 -32 22 -4 22 -3 5 29
-15 30 -15 33 0 44 28 21 -2 33 -91 37 -53 2 -84 -1 -87 -8z"/>
<path d="M757 4729 c7 -7 15 -10 18 -7 3 3 -2 9 -12 12 -14 6 -15 5 -6 -5z"/>
<path d="M4660 3890 c0 -5 4 -10 9 -10 6 0 13 5 16 10 3 6 -1 10 -9 10 -9 0
-16 -4 -16 -10z"/>
<path d="M4630 3800 c-13 -8 -12 -10 1 -15 15 -6 69 10 69 20 0 9 -54 5 -70
-5z"/>
<path d="M4560 3514 c0 -9 5 -14 12 -12 18 6 21 28 4 28 -9 0 -16 -7 -16 -16z"/>
<path d="M3532 3291 c-11 -6 -11 -10 0 -18 23 -17 50 -24 41 -10 -4 6 -8 16
-8 21 0 13 -18 17 -33 7z"/>
<path d="M3615 3250 c6 -10 -6 -14 -35 -11 -13 2 -13 0 -1 -8 10 -6 21 -6 33
0 20 11 24 29 7 29 -5 0 -7 -4 -4 -10z"/>
<path d="M3660 3210 c0 -5 7 -10 16 -10 8 0 12 5 9 10 -3 6 -10 10 -16 10 -5
0 -9 -4 -9 -10z"/>
<path d="M4247 3184 c-3 -3 -3 -13 0 -21 5 -12 7 -12 14 -1 15 23 4 40 -14 22z"/>
<path d="M862 3390 c3 -45 5 -50 23 -46 11 3 27 6 36 6 9 0 16 7 16 15 0 8 -6
15 -14 15 -7 0 -13 -4 -13 -10 0 -5 -7 -10 -15 -10 -18 0 -21 46 -3 52 8 3 4
9 -10 17 -22 12 -23 11 -20 -39z"/>
<path d="M950 3326 c0 -20 4 -23 22 -18 12 3 17 7 10 10 -6 2 -12 10 -12 18 0
8 -4 14 -10 14 -5 0 -10 -11 -10 -24z"/>
<path d="M1000 3245 c0 -14 29 -35 49 -35 24 0 9 29 -19 39 -24 8 -30 7 -30
-4z"/>
<path d="M1573 3297 c4 -10 7 -23 7 -28 0 -5 6 -9 14 -9 8 0 22 -8 31 -17 16
-16 17 -15 14 1 -2 10 -19 30 -38 45 -28 21 -33 22 -28 8z"/>
<path d="M4517 3053 c-4 -3 -7 -13 -7 -22 1 -13 3 -13 11 2 11 19 8 33 -4 20z"/>
<path d="M4325 2583 c-10 -24 -12 -40 -6 -46 7 -7 12 -4 16 9 4 10 11 29 16
42 11 29 11 32 -1 32 -5 0 -17 -17 -25 -37z"/>
<path d="M1930 3149 c0 -5 5 -7 10 -4 6 3 10 8 10 11 0 2 -4 4 -10 4 -5 0 -10
-5 -10 -11z"/>
<path d="M3900 2149 c0 -5 5 -7 10 -4 6 3 10 8 10 11 0 2 -4 4 -10 4 -5 0 -10
-5 -10 -11z"/>
<path d="M3620 2113 c0 -9 6 -13 15 -10 8 4 17 2 20 -3 9 -15 25 -12 19 4 -8
20 -54 27 -54 9z"/>
<path d="M3590 2109 c0 -5 5 -7 10 -4 6 3 10 8 10 11 0 2 -4 4 -10 4 -5 0 -10
-5 -10 -11z"/>
<path d="M2323 2046 c0 -8 6 -12 14 -9 7 3 13 9 13 14 0 5 -6 9 -13 9 -8 0
-14 -6 -14 -14z"/>
<path d="M2271 2014 c-16 -12 -20 -19 -12 -27 8 -8 17 -5 31 11 33 35 22 44
-19 16z"/>
<path d="M2243 1958 c-2 -16 1 -18 10 -9 7 7 8 14 1 21 -6 6 -10 2 -11 -12z"/>
<path d="M2285 1927 c-22 -26 -27 -68 -7 -74 7 -3 10 1 6 11 -6 14 5 21 29 17
4 0 7 15 7 34 0 41 -7 43 -35 12z"/>
<path d="M2217 1920 c3 -11 12 -20 19 -20 20 0 17 18 -5 29 -16 9 -18 8 -14
-9z"/>
<path d="M3695 1870 c3 -5 10 -10 16 -10 5 0 9 5 9 10 0 6 -7 10 -16 10 -8 0
-12 -4 -9 -10z"/>
<path d="M3313 1385 c0 -8 4 -15 8 -15 4 0 9 7 13 15 3 9 0 15 -8 15 -7 0 -13
-7 -13 -15z"/>
<path d="M2637 1364 c-3 -5 3 -21 14 -34 13 -18 19 -20 19 -9 0 21 -25 54 -33
43z"/>
<path d="M3007 1299 c-9 -5 -32 -8 -52 -6 -19 3 -38 0 -41 -4 -6 -10 66 -10
111 0 21 5 25 8 14 13 -8 3 -23 2 -32 -3z"/>
<path d="M2835 1080 c-3 -5 -1 -10 4 -10 6 0 11 5 11 10 0 6 -2 10 -4 10 -3 0
-8 -4 -11 -10z"/>
<path d="M2587 1065 c3 -8 9 -12 14 -9 12 7 11 11 -5 17 -10 4 -13 1 -9 -8z"/>
<path d="M295 1819 c-4 -6 -5 -13 -2 -16 7 -7 27 6 27 18 0 12 -17 12 -25 -2z"/>
<path d="M355 1771 c-3 -5 -1 -12 5 -16 5 -3 10 1 10 9 0 18 -6 21 -15 7z"/>
<path d="M290 1762 c0 -4 14 -13 30 -19 31 -12 39 -6 18 15 -13 13 -48 16 -48
4z"/>
<path d="M3586 821 c-4 -7 -5 -15 -2 -18 9 -9 19 4 14 18 -4 11 -6 11 -12 0z"/>
<path d="M3554 616 c-15 -12 -17 -17 -6 -28 11 -11 14 -10 22 2 9 14 14 40 7
40 -2 0 -12 -6 -23 -14z"/>
<path d="M640 5986 c0 -8 10 -18 23 -22 12 -3 30 -13 40 -22 14 -12 17 -13 17
-1 0 19 -11 31 -37 47 -30 16 -43 15 -43 -2z"/>
<path d="M955 5990 c3 -5 15 -10 26 -10 10 0 19 5 19 10 0 6 -12 10 -26 10
-14 0 -23 -4 -19 -10z"/>
<path d="M1103 5982 c10 -10 17 -23 18 -28 1 -11 122 -112 144 -120 8 -4 15
-13 15 -21 0 -12 3 -13 13 -4 22 17 66 -8 76 -44 4 -16 7 -32 5 -34 -2 -2 -19
8 -38 23 -36 27 -71 35 -63 14 2 -7 10 -14 18 -14 8 -1 19 -2 25 -3 18 -2 34
-47 21 -60 -9 -9 -8 -16 1 -31 6 -11 12 -24 12 -30 0 -18 -35 -11 -53 11 -17
19 -20 20 -36 5 -22 -20 -37 -20 -45 0 -9 23 -8 27 9 20 20 -7 20 18 0 34 -12
10 -13 16 -4 27 15 18 4 29 -14 14 -8 -6 -21 -9 -29 -6 -11 4 -17 -3 -22 -25
-3 -18 -3 -36 0 -41 3 -5 -2 -9 -11 -9 -12 0 -14 -6 -9 -27 10 -41 9 -40 67
-47 53 -7 117 -47 117 -73 0 -7 6 -10 14 -7 11 4 13 0 9 -15 -8 -31 -33 -35
-33 -4 0 21 -3 23 -14 14 -8 -6 -27 -13 -44 -14 -21 -1 -27 -5 -21 -13 5 -6 6
-20 2 -30 -6 -16 -5 -17 9 -6 14 11 18 10 27 -5 9 -16 12 -16 21 -3 8 13 10
13 10 -1 0 -8 -11 -26 -24 -39 -21 -19 -23 -25 -11 -36 7 -8 20 -14 28 -14 8
0 18 -8 22 -17 6 -15 9 -14 22 11 11 21 12 30 3 36 -8 5 -7 21 5 64 18 62 32
71 41 27 4 -17 15 -38 25 -47 11 -9 19 -29 19 -44 0 -35 29 -61 58 -53 12 3
29 0 37 -7 20 -17 32 -5 15 15 -7 8 -25 15 -41 15 -29 0 -38 13 -19 25 6 3 10
15 10 26 0 15 7 19 32 19 24 0 29 3 21 11 -7 7 -23 13 -38 14 -35 4 -52 20
-60 55 -3 16 -20 49 -36 74 -29 43 -30 48 -17 74 11 21 12 34 4 51 -8 18 -7
26 5 35 9 7 16 30 17 61 1 28 -1 44 -4 37 -5 -10 -9 -10 -20 -1 -18 15 -18 29
1 29 8 0 15 5 15 10 0 6 -7 10 -15 10 -8 0 -16 3 -16 8 -11 73 -6 79 45 53 27
-14 36 -16 36 -6 0 7 3 20 6 29 4 10 1 16 -9 16 -8 0 -17 7 -21 15 -7 19 -116
21 -135 3 -11 -10 -14 -10 -18 0 -5 13 -83 17 -83 4 0 -15 59 -92 70 -92 6 0
10 -9 10 -20 0 -11 -4 -20 -10 -20 -5 0 -10 5 -10 10 0 6 -6 9 -12 8 -7 -2
-14 6 -16 17 -1 11 -16 26 -31 33 -19 8 -31 22 -35 42 -5 27 -9 30 -42 30 -35
0 -36 -1 -21 -18z m217 -57 c0 -8 -4 -15 -10 -15 -5 0 -10 7 -10 15 0 8 5 15
10 15 6 0 10 -7 10 -15z m-13 -331 c-9 -9 -28 6 -21 18 4 6 10 6 17 -1 6 -6 8
-13 4 -17z"/>
<path d="M3450 5991 c0 -5 7 -11 15 -15 9 -3 15 0 15 9 0 8 -7 15 -15 15 -8 0
-15 -4 -15 -9z"/>
<path d="M467 5976 c-3 -8 -2 -18 3 -21 13 -8 24 15 12 27 -6 6 -11 4 -15 -6z"/>
<path d="M881 5961 c-8 -5 -11 -16 -8 -25 10 -25 25 -19 23 9 0 14 -1 25 -1
25 0 0 -6 -4 -14 -9z"/>
<path d="M1085 5950 c3 -5 8 -10 11 -10 2 0 4 5 4 10 0 6 -5 10 -11 10 -5 0
-7 -4 -4 -10z"/>
<path d="M2896 5934 c-8 -22 -7 -34 3 -34 5 0 9 11 9 25 0 29 -3 31 -12 9z"/>
<path d="M837 5910 c3 -11 9 -20 15 -20 5 0 4 9 -2 20 -6 11 -12 20 -14 20 -2
0 -2 -9 1 -20z"/>
<path d="M1515 5920 c3 -5 8 -10 11 -10 2 0 4 5 4 10 0 6 -5 10 -11 10 -5 0
-7 -4 -4 -10z"/>
<path d="M920 5880 c0 -5 7 -7 15 -4 8 4 15 8 15 10 0 2 -7 4 -15 4 -8 0 -15
-4 -15 -10z"/>
<path d="M3545 5879 c-10 -15 3 -25 16 -12 7 7 7 13 1 17 -6 3 -14 1 -17 -5z"/>
<path d="M4405 5880 c4 -6 11 -8 16 -5 14 9 11 15 -7 15 -8 0 -12 -5 -9 -10z"/>
<path d="M795 5870 c-3 -6 1 -13 9 -16 9 -3 16 -15 16 -25 0 -12 10 -23 25
-29 16 -6 23 -15 19 -25 -6 -14 21 -33 31 -23 10 10 -22 59 -41 64 -14 4 -24
16 -28 35 -6 29 -19 38 -31 19z"/>
<path d="M990 5856 c0 -9 0 -19 -1 -23 0 -4 4 -9 9 -11 16 -5 22 26 6 38 -11
10 -14 9 -14 -4z"/>
<path d="M2350 5850 c0 -5 5 -10 11 -10 5 0 7 5 4 10 -3 6 -8 10 -11 10 -2 0
-4 -4 -4 -10z"/>
<path d="M1465 5840 c3 -5 8 -10 11 -10 2 0 4 5 4 10 0 6 -5 10 -11 10 -5 0
-7 -4 -4 -10z"/>
<path d="M3700 5800 c-8 -5 -11 -12 -7 -16 4 -4 15 0 24 9 18 18 8 23 -17 7z"/>
<path d="M1200 5790 c0 -6 -5 -8 -12 -4 -7 5 -8 3 -4 -5 12 -19 58 -33 69 -22
6 6 -2 15 -22 25 -19 10 -31 12 -31 6z"/>
<path d="M5340 5790 c0 -5 5 -10 10 -10 6 0 10 5 10 10 0 6 -4 10 -10 10 -5 0
-10 -4 -10 -10z"/>
<path d="M1686 5770 c9 -36 25 -48 54 -40 l25 7 -30 14 c-16 7 -36 21 -43 29
-11 13 -12 11 -6 -10z"/>
<path d="M188 5763 c7 -3 16 -2 19 1 4 3 -2 6 -13 5 -11 0 -14 -3 -6 -6z"/>
<path d="M1580 5755 c0 -16 30 -35 54 -35 27 0 18 15 -19 33 -30 14 -35 14
-35 2z"/>
<path d="M1051 5733 c-1 -17 4 -35 10 -38 19 -13 23 5 6 38 l-16 32 0 -32z"/>
<path d="M820 5746 c0 -2 11 -11 25 -20 28 -19 33 -15 9 8 -14 15 -34 22 -34
12z"/>
<path d="M895 5741 c-6 -11 29 -33 39 -24 7 7 -12 33 -25 33 -4 0 -10 -4 -14
-9z"/>
<path d="M1484 5716 c-8 -18 -8 -28 3 -42 7 -10 13 -25 13 -34 0 -23 40 -42
81 -38 l34 3 -28 27 c-20 19 -27 33 -23 46 6 16 3 19 -19 15 -20 -4 -27 0 -35
21 -12 32 -12 32 -26 2z"/>
<path d="M5276 5725 c-18 -13 -17 -14 8 -21 31 -7 41 -1 33 21 -8 18 -16 19
-41 0z"/>
<path d="M1009 5729 c0 -2 -2 -12 -4 -21 -2 -9 3 -25 11 -35 12 -16 13 -14 7
17 -5 32 -12 50 -14 39z"/>
<path d="M1815 5711 c-3 -5 -1 -12 5 -16 5 -3 10 1 10 9 0 18 -6 21 -15 7z"/>
<path d="M1930 5710 c0 -5 4 -10 9 -10 5 0 18 -3 28 -7 16 -6 16 -5 4 10 -15
19 -41 23 -41 7z"/>
<path d="M5416 5701 c-14 -5 -16 -10 -8 -15 15 -9 52 2 52 15 0 11 -17 11 -44
0z"/>
<path d="M796 5686 c7 -17 54 -23 54 -6 0 6 -6 10 -14 10 -8 0 -22 3 -30 6
-12 5 -15 2 -10 -10z"/>
<path d="M930 5663 c1 -20 12 -36 40 -58 22 -16 42 -39 45 -51 5 -16 12 -19
36 -16 16 2 32 8 35 13 12 21 46 7 65 -26 12 -19 26 -35 32 -35 6 0 7 3 4 7
-4 3 -2 12 5 20 20 24 -27 63 -78 63 -34 0 -47 5 -62 25 -12 15 -26 23 -35 19
-10 -3 -25 8 -44 30 -34 43 -43 45 -43 9z m100 -63 c0 -5 -4 -10 -10 -10 -5 0
-10 5 -10 10 0 6 5 10 10 10 6 0 10 -4 10 -10z"/>
<path d="M860 5670 c0 -6 7 -10 15 -10 8 0 15 2 15 4 0 2 -7 6 -15 10 -8 3
-15 1 -15 -4z"/>
<path d="M3358 5649 c-10 -5 -18 -7 -18 -4 0 3 -9 -3 -21 -14 -36 -34 -15 -44
75 -38 45 3 99 2 121 -2 l40 -9 -35 -1 c-32 -2 -91 -31 -61 -31 7 0 9 -4 6
-10 -4 -6 15 -8 53 -4 49 6 60 4 65 -10 5 -12 14 -15 31 -10 21 5 24 3 19 -15
-4 -17 -1 -19 23 -15 16 3 30 9 32 14 2 5 9 4 17 -3 10 -9 10 -15 2 -26 -10
-11 -8 -13 11 -7 12 4 22 3 22 -1 0 -5 19 -7 42 -4 52 7 64 30 14 27 -27 -1
-34 2 -33 16 1 19 17 26 17 8 0 -5 5 -10 10 -10 19 0 5 25 -20 36 -16 7 -29 8
-37 2 -8 -6 -18 -3 -30 11 -9 12 -25 21 -34 21 -9 0 -36 9 -60 20 -24 11 -60
20 -80 20 -20 0 -57 11 -83 25 -52 28 -63 29 -88 14z m298 -94 c10 -8 14 -15
7 -15 -6 0 -18 -2 -25 -5 -9 -4 -14 2 -15 15 -2 24 6 25 33 5z"/>
<path d="M5188 5653 c12 -2 30 -2 40 0 9 3 -1 5 -23 4 -22 0 -30 -2 -17 -4z"/>
<path d="M3170 5640 c-18 -12 20 -12 95 0 l50 7 -65 2 c-36 0 -72 -4 -80 -9z"/>
<path d="M4947 5643 c-16 -15 -6 -33 18 -33 18 0 25 5 25 20 0 20 -28 28 -43
13z"/>
<path d="M5110 5646 c0 -9 30 -14 35 -6 4 6 -3 10 -14 10 -12 0 -21 -2 -21 -4z"/>
<path d="M5570 5640 c0 -5 7 -7 15 -4 8 4 15 8 15 10 0 2 -7 4 -15 4 -8 0 -15
-4 -15 -10z"/>
<path d="M4872 5618 c2 -13 9 -23 17 -23 23 0 24 23 1 35 -19 10 -21 9 -18
-12z"/>
<path d="M3020 5614 l-25 -15 25 7 c14 3 29 10 35 15 15 14 -7 10 -35 -7z"/>
<path d="M3223 5619 c-15 -6 -14 -8 7 -8 14 0 32 4 40 9 12 7 10 9 -7 7 -12 0
-30 -4 -40 -8z"/>
<path d="M5420 5615 c0 -19 9 -19 34 0 19 14 19 15 -7 15 -17 0 -27 -5 -27
-15z"/>
<path d="M5205 5600 c3 -5 25 -10 48 -10 31 0 38 3 27 10 -20 13 -83 13 -75 0z"/>
<path d="M2205 5590 c-3 -5 -2 -10 4 -10 5 0 13 5 16 10 3 6 2 10 -4 10 -5 0
-13 -4 -16 -10z"/>
<path d="M3183 5588 c-13 -6 -23 -15 -23 -20 0 -11 1 -11 46 12 26 12 32 19
19 19 -11 0 -30 -5 -42 -11z"/>
<path d="M5020 5581 c0 -10 30 -24 37 -17 3 3 2 9 -2 15 -8 13 -35 15 -35 2z"/>
<path d="M3284 5560 c-30 -11 -38 -27 -13 -25 20 1 46 21 38 29 -2 2 -14 0
-25 -4z"/>
<path d="M3540 5520 c-9 -6 -10 -10 -3 -10 6 0 15 5 18 10 8 12 4 12 -15 0z"/>
<path d="M3425 5500 c-8 -13 5 -13 25 0 13 8 13 10 -2 10 -9 0 -20 -4 -23 -10z"/>
<path d="M3490 5490 c-25 -15 -7 -17 50 -4 l55 12 -45 1 c-25 0 -52 -3 -60 -9z"/>
<path d="M3366 5481 c-13 -21 51 -28 77 -8 15 10 11 12 -27 15 -25 1 -47 -2
-50 -7z"/>
<path d="M5564 5475 c-4 -8 -10 -13 -14 -10 -4 3 -33 -3 -65 -13 -55 -18 -56
-18 -30 -30 37 -17 62 -15 105 9 28 16 36 26 33 40 -6 23 -21 25 -29 4z"/>
<path d="M940 5468 c0 -18 26 -43 33 -31 2 4 -4 17 -14 27 -16 16 -19 17 -19
4z"/>
<path d="M5630 5450 c0 -5 4 -10 9 -10 6 0 13 5 16 10 3 6 -1 10 -9 10 -9 0
-16 -4 -16 -10z"/>
<path d="M3405 5440 c-3 -5 -1 -10 4 -10 6 0 11 5 11 10 0 6 -2 10 -4 10 -3 0
-8 -4 -11 -10z"/>
<path d="M3741 5416 c-9 -11 -28 -33 -43 -48 l-27 -29 22 -9 c20 -8 19 -9 -9
-9 -31 -1 -59 -31 -29 -31 8 0 20 -8 27 -18 19 -25 71 -57 87 -53 12 2 12 0 3
-12 -6 -7 -10 -16 -8 -18 2 -2 -7 -4 -20 -4 -13 0 -24 3 -24 8 0 4 6 7 12 7 7
0 -4 11 -25 25 -20 14 -41 23 -46 20 -5 -3 -16 1 -24 10 -13 12 -16 12 -20 1
-7 -18 1 -26 26 -26 18 0 17 -2 -4 -20 -19 -16 -21 -21 -10 -29 9 -6 3 -10
-23 -13 -45 -5 -54 2 -24 19 37 20 6 15 -35 -6 -37 -19 -37 -38 0 -24 17 6 17
6 1 -10 -17 -18 -38 -23 -38 -9 0 4 -18 7 -40 7 -22 1 -40 0 -40 -2 0 -8 81
-42 113 -48 20 -4 37 -10 37 -14 0 -9 66 -41 83 -41 7 0 3 7 -7 15 -11 8 -17
17 -15 20 8 7 103 -24 114 -38 6 -6 17 -13 25 -15 32 -7 82 -36 93 -54 7 -10
18 -18 25 -18 16 0 165 -115 203 -157 15 -15 44 -55 65 -88 20 -33 42 -63 48
-67 6 -4 7 -8 2 -8 -5 0 -1 -9 9 -20 31 -34 38 -22 9 15 -28 37 -26 42 8 24
16 -9 19 -8 13 2 -8 12 -6 12 43 -8 6 -3 12 0 12 6 0 6 -4 11 -9 11 -5 0 -11
6 -14 14 -4 10 0 12 16 8 21 -5 21 -5 4 15 -16 18 -16 21 -2 27 10 3 14 2 9
-5 -3 -6 3 -17 15 -25 12 -8 21 -24 21 -34 0 -10 5 -22 10 -25 6 -3 10 -11 10
-17 0 -6 -12 -1 -27 13 -14 13 -24 20 -22 14 3 -5 11 -23 18 -40 7 -16 17 -38
22 -47 12 -24 11 -72 -2 -85 -8 -8 -5 -16 9 -29 11 -11 22 -26 25 -34 3 -8 6
2 6 22 l1 37 55 -6 c37 -4 55 -2 55 5 0 16 -55 42 -81 39 -19 -2 -25 6 -35 41
-11 36 -10 48 2 79 9 20 12 39 7 42 -4 3 -21 23 -36 44 -23 30 -34 37 -63 37
-24 0 -34 5 -34 15 0 18 17 20 22 3 3 -9 11 -10 26 -3 21 10 20 11 -16 59 -44
58 -42 56 -77 129 -15 32 -40 67 -56 78 -19 13 -34 37 -43 70 -8 27 -24 63
-36 78 -11 16 -20 41 -20 56 0 14 -5 36 -11 48 -14 26 -69 91 -69 81 0 -3 -7
-1 -15 6 -9 7 -31 14 -50 16 -19 1 -49 5 -67 9 -21 4 -28 3 -20 -3 11 -7 8
-11 -10 -17 -41 -13 -48 -13 -48 -4 0 5 4 9 9 9 5 0 12 9 16 20 5 17 12 19 53
13 26 -3 53 -10 60 -16 8 -6 12 -6 12 3 0 9 8 7 26 -5 35 -23 42 -12 7 13 -21
15 -49 21 -117 24 -80 4 -91 2 -105 -16z m149 -56 c0 -12 -27 -12 -55 0 -16 7
-13 9 18 9 20 1 37 -3 37 -9z m-120 -50 c12 -8 12 -10 -5 -10 -11 0 -27 5 -35
10 -12 8 -12 10 5 10 11 0 27 -5 35 -10z m98 -65 c-3 -3 -9 2 -12 12 -6 14 -5
15 5 6 7 -7 10 -15 7 -18z m177 -35 c10 -11 15 -20 11 -20 -4 0 -16 9 -28 20
-12 11 -17 20 -11 20 5 0 18 -9 28 -20z m153 -285 c18 -19 27 -37 22 -40 -11
-7 -70 47 -70 64 0 20 16 12 48 -24z"/>
<path d="M1350 5420 c0 -5 5 -10 10 -10 6 0 10 5 10 10 0 6 -4 10 -10 10 -5 0
-10 -4 -10 -10z"/>
<path d="M3697 5413 c-2 -10 -8 -27 -12 -38 -5 -14 1 -11 19 10 29 34 32 45
12 45 -7 0 -16 -8 -19 -17z"/>
<path d="M1790 5391 c0 -6 5 -13 10 -16 6 -3 10 1 10 9 0 9 -4 16 -10 16 -5 0
-10 -4 -10 -9z"/>
<path d="M3645 5390 c-3 -5 1 -10 9 -10 9 0 16 5 16 10 0 6 -4 10 -9 10 -6 0
-13 -4 -16 -10z"/>
<path d="M747 5349 c7 -7 15 -10 18 -7 3 3 -2 9 -12 12 -14 6 -15 5 -6 -5z"/>
<path d="M1560 5346 c0 -11 7 -27 15 -36 8 -9 16 -29 17 -43 2 -17 8 -27 18
-27 9 0 21 -5 27 -11 8 -8 14 -6 22 10 9 16 18 19 44 15 31 -5 31 -5 12 11
-13 11 -31 15 -52 11 -18 -2 -33 -2 -33 2 -1 4 -16 25 -35 47 -27 31 -35 36
-35 21z"/>
<path d="M1640 5330 c0 -6 7 -13 15 -17 24 -9 27 1 5 15 -13 8 -20 8 -20 2z"/>
<path d="M1730 5330 c0 -5 7 -10 16 -10 8 0 12 5 9 10 -3 6 -10 10 -16 10 -5
0 -9 -4 -9 -10z"/>
<path d="M790 5306 c0 -9 5 -16 10 -16 6 0 10 4 10 9 0 6 -4 13 -10 16 -5 3
-10 -1 -10 -9z"/>
<path d="M1343 5303 c-13 -9 -23 -23 -23 -31 0 -13 7 -10 27 10 31 31 29 43
-4 21z"/>
<path d="M667 5294 c-9 -10 2 -24 19 -24 8 0 14 7 14 15 0 15 -21 21 -33 9z"/>
<path d="M1392 5291 c4 -13 18 -16 19 -4 0 4 -5 9 -11 12 -7 2 -11 -2 -8 -8z"/>
<path d="M1470 5278 c0 -12 69 -38 100 -38 26 0 5 20 -31 30 -22 6 -47 14 -55
17 -8 3 -14 -1 -14 -9z"/>
<path d="M1742 5270 c17 -26 28 -29 58 -17 l25 10 -25 5 c-14 2 -29 8 -34 13
-6 5 -16 9 -23 9 -11 0 -11 -4 -1 -20z"/>
<path d="M0 5227 c0 -18 5 -38 12 -45 9 -9 9 -12 0 -12 -7 0 -12 -7 -12 -15 0
-8 5 -15 10 -15 6 0 10 7 10 15 0 8 4 15 8 15 14 0 11 41 -4 47 -9 3 -12 13
-9 24 4 11 2 19 -4 19 -6 0 -11 -15 -11 -33z"/>
<path d="M3200 5256 c0 -2 9 -6 20 -9 11 -3 18 -1 14 4 -5 9 -34 13 -34 5z"/>
<path d="M5980 5251 c0 -6 5 -13 10 -16 6 -3 10 1 10 9 0 9 -4 16 -10 16 -5 0
-10 -4 -10 -9z"/>
<path d="M4540 5235 c-17 -20 7 -20 34 0 19 15 19 15 -1 15 -11 0 -26 -7 -33
-15z"/>
<path d="M5515 5240 c3 -5 15 -10 26 -10 10 0 19 5 19 10 0 6 -12 10 -26 10
-14 0 -23 -4 -19 -10z"/>
<path d="M850 5228 c0 -9 5 -20 11 -23 17 -11 18 -2 3 19 -12 17 -14 17 -14 4z"/>
<path d="M3188 5228 c6 -6 18 -8 28 -6 14 3 12 5 -9 10 -19 3 -25 2 -19 -4z"/>
<path d="M5775 5230 c3 -5 10 -10 16 -10 5 0 9 5 9 10 0 6 -7 10 -16 10 -8 0
-12 -4 -9 -10z"/>
<path d="M3088 5218 c-8 -5 1 -8 24 -8 20 0 39 4 42 8 7 11 -49 11 -66 0z"/>
<path d="M3525 5221 c-3 -6 6 -8 20 -7 34 4 40 11 10 14 -13 1 -27 -2 -30 -7z"/>
<path d="M3595 5221 c-3 -5 2 -11 10 -15 8 -3 17 -1 20 3 3 5 -2 11 -10 15 -8
3 -17 1 -20 -3z"/>
<path d="M5513 5202 c-28 -4 -31 -32 -4 -32 11 0 21 -6 24 -12 4 -10 7 -10 18
0 9 9 10 12 1 12 -7 0 -12 5 -12 11 0 6 8 8 18 5 9 -3 31 1 47 9 30 14 30 14
-20 12 -27 -1 -60 -3 -72 -5z"/>
<path d="M950 5185 c0 -9 5 -15 11 -13 6 2 11 8 11 13 0 5 -5 11 -11 13 -6 2
-11 -4 -11 -13z"/>
<path d="M564 5178 c-4 -5 0 -14 7 -19 20 -13 29 -11 29 5 0 18 -27 29 -36 14z"/>
<path d="M1633 5160 c-45 -43 -53 -77 -22 -101 13 -10 39 -23 58 -28 29 -9 38
-7 67 16 37 30 36 47 -1 33 -21 -8 -25 -7 -25 11 0 11 -7 22 -15 26 -23 8 -28
-2 -14 -26 18 -28 6 -36 -25 -16 -34 22 -33 36 4 68 17 15 30 32 30 37 0 19
-25 10 -57 -20z"/>
<path d="M1870 5181 c0 -5 9 -15 19 -20 14 -8 20 -7 25 4 3 8 1 15 -3 15 -5 0
-16 3 -25 6 -9 3 -16 1 -16 -5z"/>
<path d="M3478 5183 c7 -3 16 -2 19 1 4 3 -2 6 -13 5 -11 0 -14 -3 -6 -6z"/>
<path d="M5421 5181 c-10 -7 -10 -10 -1 -16 6 -4 16 -3 22 3 13 13 -4 23 -21
13z"/>
<path d="M755 5170 c3 -5 16 -10 28 -10 18 0 19 2 7 10 -20 13 -43 13 -35 0z"/>
<path d="M3311 5171 c-9 -6 -6 -10 10 -14 28 -8 34 -3 16 11 -7 6 -19 7 -26 3z"/>
<path d="M3384 5155 c21 -16 32 -13 21 4 -3 6 -14 11 -23 11 -15 -1 -15 -2 2
-15z"/>
<path d="M4883 5163 c-7 -2 -13 -9 -13 -14 0 -12 51 -11 70 1 13 8 13 10 -2
10 -9 0 -22 2 -30 4 -7 3 -19 2 -25 -1z"/>
<path d="M5710 5140 c0 -13 11 -13 30 0 12 8 11 10 -7 10 -13 0 -23 -4 -23
-10z"/>
<path d="M1385 5130 c-4 -6 0 -19 10 -29 10 -13 14 -27 10 -44 -5 -19 -2 -28
14 -36 23 -13 40 4 22 22 -6 6 -11 23 -11 37 0 31 -34 68 -45 50z"/>
<path d="M590 5120 c0 -5 5 -10 10 -10 6 0 10 5 10 10 0 6 -4 10 -10 10 -5 0
-10 -4 -10 -10z"/>
<path d="M712 5119 c2 -7 10 -15 17 -17 8 -3 12 1 9 9 -2 7 -10 15 -17 17 -8
3 -12 -1 -9 -9z"/>
<path d="M920 5120 c0 -6 7 -10 15 -10 8 0 15 2 15 4 0 2 -7 6 -15 10 -8 3
-15 1 -15 -4z"/>
<path d="M984 5114 c3 -9 6 -19 6 -23 0 -4 11 -13 25 -19 16 -7 25 -8 25 -1 0
5 -6 12 -14 15 -8 3 -16 14 -19 25 -3 10 -11 19 -17 19 -7 0 -10 -7 -6 -16z"/>
<path d="M4985 5123 c-43 -10 -40 -24 4 -21 25 2 46 9 49 16 4 12 -15 14 -53
5z"/>
<path d="M5345 5110 c3 -5 8 -10 11 -10 2 0 4 5 4 10 0 6 -5 10 -11 10 -5 0
-7 -4 -4 -10z"/>
<path d="M5732 5073 c2 -19 -1 -27 -11 -25 -7 1 -24 -4 -37 -13 -29 -19 -44
-19 -44 0 0 8 5 15 10 15 6 0 10 4 10 9 0 15 -77 10 -97 -5 -16 -12 -14 -13
19 -14 29 0 38 -5 44 -22 5 -16 2 -25 -11 -33 -71 -42 -70 -66 2 -47 39 11 53
10 96 -4 27 -9 61 -22 75 -30 19 -9 30 -10 39 -2 22 18 15 39 -24 74 -20 19
-35 36 -32 38 8 8 143 9 172 1 32 -9 38 10 7 20 -12 4 -19 14 -18 23 3 17 -11
21 -145 36 l-58 6 3 -27z"/>
<path d="M570 5070 c0 -5 8 -10 18 -10 10 0 23 -5 30 -12 7 -7 12 -8 12 -2 0
16 -22 34 -42 34 -10 0 -18 -4 -18 -10z"/>
<path d="M4410 5020 c0 -5 7 -10 15 -10 8 0 15 5 15 10 0 6 -7 10 -15 10 -8 0
-15 -4 -15 -10z"/>
<path d="M4523 5023 c-13 -2 -23 -9 -23 -15 0 -6 10 -8 23 -4 12 3 25 6 30 6
4 0 7 5 7 10 0 6 -3 9 -7 9 -5 -1 -18 -4 -30 -6z"/>
<path d="M5340 5016 c0 -2 7 -6 15 -10 8 -3 15 -1 15 4 0 6 -7 10 -15 10 -8 0
-15 -2 -15 -4z"/>
<path d="M3715 5000 c28 -12 37 -12 30 0 -3 6 -16 10 -28 9 -21 0 -21 -1 -2
-9z"/>
<path d="M4230 4990 c0 -5 5 -10 10 -10 6 0 10 5 10 10 0 6 -4 10 -10 10 -5 0
-10 -4 -10 -10z"/>
<path d="M1446 4976 c3 -8 12 -17 20 -20 11 -4 12 -2 1 14 -14 23 -29 27 -21
6z"/>
<path d="M5424 4956 c-10 -8 -16 -18 -12 -21 12 -12 58 4 58 20 0 19 -20 19
-46 1z"/>
<path d="M1372 4930 c3 -19 8 -43 13 -53 5 -13 4 -16 -9 -11 -9 3 -16 1 -16
-5 0 -6 2 -11 4 -11 2 0 11 -3 20 -6 13 -5 16 2 16 37 0 24 -8 53 -16 64 -15
19 -16 18 -12 -15z"/>
<path d="M5495 4950 c3 -5 13 -10 21 -10 8 0 12 5 9 10 -3 6 -13 10 -21 10 -8
0 -12 -4 -9 -10z"/>
<path d="M4365 4940 c-8 -12 20 -24 35 -15 5 3 10 10 10 16 0 12 -37 12 -45
-1z"/>
<path d="M5872 4941 c-11 -7 -10 -10 3 -15 26 -10 35 -7 35 9 0 17 -18 19 -38
6z"/>
<path d="M5155 4926 c-18 -13 -18 -14 2 -24 23 -13 33 -7 33 20 0 22 -10 23
-35 4z"/>
<path d="M1515 4910 c-17 -6 -16 -8 9 -14 33 -8 42 -3 24 11 -7 6 -22 7 -33 3z"/>
<path d="M4273 4898 c-7 -12 17 -29 36 -25 8 1 16 7 18 13 5 14 -45 25 -54 12z"/>
<path d="M4562 4888 c5 -15 28 -18 29 -3 0 6 -7 12 -17 13 -10 3 -15 -1 -12
-10z"/>
<path d="M5625 4890 c-3 -5 1 -10 10 -10 9 0 13 5 10 10 -3 6 -8 10 -10 10 -2
0 -7 -4 -10 -10z"/>
<path d="M5835 4891 c-7 -12 12 -24 25 -16 11 7 4 25 -10 25 -5 0 -11 -4 -15
-9z"/>
<path d="M1575 4870 c3 -5 11 -10 16 -10 6 0 7 5 4 10 -3 6 -11 10 -16 10 -6
0 -7 -4 -4 -10z"/>
<path d="M5905 4850 c-3 -5 1 -10 9 -10 9 0 16 5 16 10 0 6 -4 10 -9 10 -6 0
-13 -4 -16 -10z"/>
<path d="M1571 4814 c0 -11 3 -14 6 -6 3 7 2 16 -1 19 -3 4 -6 -2 -5 -13z"/>
<path d="M5818 4803 c-25 -30 -12 -45 23 -27 25 12 28 18 18 30 -15 18 -23 18
-41 -3z"/>
<path d="M4645 4800 c3 -5 8 -10 11 -10 2 0 4 5 4 10 0 6 -5 10 -11 10 -5 0
-7 -4 -4 -10z"/>
<path d="M5693 4803 c-9 -3 -10 -9 -1 -23 9 -14 8 -21 -5 -35 -19 -18 -21 -31
-9 -39 15 -9 50 5 56 22 3 10 9 23 12 30 3 7 -2 12 -15 12 -13 0 -19 5 -15 14
6 16 -5 25 -23 19z"/>
<path d="M1670 4780 c0 -5 5 -10 11 -10 5 0 7 5 4 10 -3 6 -8 10 -11 10 -2 0
-4 -4 -4 -10z"/>
<path d="M1560 4776 c0 -9 30 -14 35 -6 4 6 -3 10 -14 10 -12 0 -21 -2 -21 -4z"/>
<path d="M5876 4741 c-4 -5 -2 -12 3 -15 5 -4 12 -2 15 3 4 5 2 12 -3 15 -5 4
-12 2 -15 -3z"/>
<path d="M4790 4675 c7 -8 17 -15 22 -15 5 0 21 -9 36 -20 24 -17 32 -18 70
-9 24 7 42 17 42 25 0 17 -37 19 -43 2 -3 -10 -9 -10 -26 0 -11 6 -30 12 -40
12 -11 0 -23 5 -26 10 -3 6 -15 10 -27 10 -17 0 -18 -2 -8 -15z"/>
<path d="M5712 4672 c-11 -7 -11 -11 0 -19 16 -14 70 -5 65 11 -4 14 -48 19
-65 8z"/>
<path d="M1470 4650 c19 -13 30 -13 30 0 0 6 -10 10 -22 10 -19 0 -20 -2 -8
-10z"/>
<path d="M5820 4650 c0 -5 5 -10 10 -10 6 0 10 5 10 10 0 6 -4 10 -10 10 -5 0
-10 -4 -10 -10z"/>
<path d="M5340 4625 c-10 -12 -10 -15 4 -15 9 0 16 7 16 15 0 8 -2 15 -4 15
-2 0 -9 -7 -16 -15z"/>
<path d="M4494 4615 c-18 -13 -16 -14 18 -13 30 1 36 4 27 15 -14 17 -21 16
-45 -2z"/>
<path d="M5404 4619 c-11 -18 9 -28 36 -17 20 7 22 11 10 18 -20 13 -37 12
-46 -1z"/>
<path d="M1673 4613 c-18 -7 -16 -20 2 -20 8 0 15 6 15 14 0 7 -1 13 -2 12 -2
0 -9 -3 -15 -6z"/>
<path d="M4825 4610 c3 -5 8 -10 11 -10 2 0 4 5 4 10 0 6 -5 10 -11 10 -5 0
-7 -4 -4 -10z"/>
<path d="M5890 4610 c-11 -7 -12 -12 -3 -21 14 -14 53 -2 53 17 0 16 -28 18
-50 4z"/>
<path d="M4935 4560 c3 -5 12 -7 20 -3 21 7 19 13 -6 13 -11 0 -18 -4 -14 -10z"/>
<path d="M4276 4546 c5 -13 2 -15 -12 -10 -11 4 -1 -12 24 -37 23 -25 42 -53
42 -63 0 -9 5 -26 10 -37 7 -12 7 -19 1 -19 -5 0 -12 8 -15 18 -3 9 -14 22
-23 28 -15 9 -18 7 -20 -15 -1 -14 4 -32 10 -40 9 -12 9 -13 0 -7 -8 4 -13 1
-13 -8 0 -10 9 -16 25 -16 16 0 25 -6 25 -15 0 -8 5 -15 10 -15 7 0 7 6 0 19
-16 31 -13 43 9 32 17 -10 18 -7 10 35 -10 50 -21 75 -43 94 -9 7 -16 20 -16
30 0 10 -7 23 -15 30 -13 11 -14 10 -9 -4z"/>
<path d="M5896 4539 c3 -5 -3 -9 -14 -9 -26 0 -33 -10 -22 -31 8 -14 6 -19
-13 -24 -12 -4 -41 -15 -63 -25 -36 -16 -41 -22 -37 -44 3 -15 9 -26 14 -26 5
0 9 -8 9 -17 0 -9 6 -24 13 -32 8 -9 20 -32 27 -51 19 -54 52 -123 64 -140 7
-8 20 -40 30 -70 11 -30 26 -68 35 -85 11 -22 15 -54 13 -121 -3 -86 -1 -94
23 -119 l25 -28 0 142 c0 134 -1 141 -20 141 -26 0 -26 25 0 43 18 12 19 26
19 187 0 110 -3 178 -10 187 -6 7 -9 20 -5 28 8 21 -44 92 -71 98 -12 2 -20 0
-17 -4z"/>
<path d="M4475 4520 c-3 -5 -2 -10 4 -10 5 0 13 5 16 10 3 6 2 10 -4 10 -5 0
-13 -4 -16 -10z"/>
<path d="M5057 4505 c6 -17 25 -15 31 3 2 7 -5 12 -17 12 -14 0 -19 -5 -14
-15z"/>
<path d="M5635 4490 c-4 -6 8 -10 30 -10 22 0 34 4 30 10 -3 6 -17 10 -30 10
-13 0 -27 -4 -30 -10z"/>
<path d="M5017 4463 c-7 -7 46 -33 67 -33 6 0 18 5 26 10 13 9 13 11 0 20 -17
11 -83 13 -93 3z"/>
<path d="M4520 4420 c0 -5 5 -10 11 -10 5 0 7 5 4 10 -3 6 -8 10 -11 10 -2 0
-4 -4 -4 -10z"/>
<path d="M5032 4363 c-15 -8 -39 -12 -53 -9 -18 3 -31 -1 -42 -15 -9 -10 -26
-19 -36 -19 -30 0 -31 -12 -5 -44 l25 -28 42 16 c27 10 55 13 81 9 37 -6 38
-5 27 16 -7 11 -16 21 -21 21 -6 0 -10 4 -10 9 0 8 71 22 79 15 2 -2 -2 -10
-9 -19 -10 -13 -9 -15 8 -15 24 0 51 28 35 38 -5 4 -12 14 -15 22 -6 19 -71
21 -106 3z"/>
<path d="M5435 4360 c-3 -5 -1 -10 4 -10 6 0 11 5 11 10 0 6 -2 10 -4 10 -3 0
-8 -4 -11 -10z"/>
<path d="M5205 4350 c-7 -12 2 -12 30 0 19 8 19 9 -2 9 -12 1 -25 -3 -28 -9z"/>
<path d="M5277 4353 c-14 -14 -6 -31 17 -35 32 -6 51 6 43 26 -6 16 -47 22
-60 9z"/>
<path d="M5452 4308 c-7 -7 -30 -11 -51 -10 -30 2 -45 -3 -61 -20 -20 -21 -20
-23 -3 -36 34 -24 93 -34 125 -21 40 17 85 17 131 2 47 -16 87 -8 87 18 0 23
-37 34 -90 25 -50 -8 -93 10 -84 36 4 14 0 18 -18 18 -13 0 -29 -5 -36 -12z"/>
<path d="M4380 4291 c0 -6 5 -13 10 -16 6 -3 10 1 10 9 0 9 -4 16 -10 16 -5 0
-10 -4 -10 -9z"/>
<path d="M4123 4238 c-12 -42 -7 -57 17 -51 15 4 19 12 16 35 -5 45 -21 53
-33 16z"/>
<path d="M4845 4250 c3 -5 8 -10 11 -10 2 0 4 5 4 10 0 6 -5 10 -11 10 -5 0
-7 -4 -4 -10z"/>
<path d="M4875 4200 c-6 -10 26 -30 49 -30 9 0 16 4 16 9 0 13 -58 32 -65 21z"/>
<path d="M5168 4203 c-23 -4 -28 -9 -28 -34 0 -24 6 -31 36 -44 44 -18 126
-18 174 0 l35 13 -47 1 c-46 1 -64 16 -33 27 8 4 15 12 15 20 0 10 -14 14 -49
14 -27 0 -55 2 -63 3 -7 2 -25 2 -40 0z m110 -24 c-2 -6 -8 -10 -13 -10 -5 0
-11 4 -13 10 -2 6 4 11 13 11 9 0 15 -5 13 -11z"/>
<path d="M5050 4146 c0 -22 15 -27 45 -16 33 12 24 30 -16 30 -19 0 -29 -5
-29 -14z"/>
<path d="M1955 4131 c-3 -5 -1 -12 5 -16 5 -3 10 1 10 9 0 18 -6 21 -15 7z"/>
<path d="M3290 4110 c0 -13 11 -13 30 0 12 8 11 10 -7 10 -13 0 -23 -4 -23
-10z"/>
<path d="M5620 3972 c0 -8 52 -42 64 -42 18 0 2 32 -20 40 -31 12 -44 13 -44
2z"/>
<path d="M5560 3905 c0 -8 6 -15 14 -15 8 0 16 7 20 15 4 10 -1 15 -14 15 -11
0 -20 -7 -20 -15z"/>
<path d="M5726 3897 c-17 -13 -16 -14 15 -27 19 -7 39 -20 46 -28 6 -7 16 -11
22 -7 18 11 30 40 22 53 -11 19 -84 25 -105 9z"/>
<path d="M5257 3843 c-14 -14 27 -43 60 -43 36 0 56 25 32 41 -16 10 -83 12
-92 2z"/>
<path d="M5590 3831 c0 -5 -8 -11 -17 -13 -14 -3 -10 -8 15 -21 27 -15 32 -15
32 -3 0 8 -5 18 -11 22 -8 4 -7 9 2 15 11 7 10 9 -3 9 -10 0 -18 -4 -18 -9z"/>
<path d="M5674 3718 c-3 -4 -4 -8 -2 -9 34 -8 48 -7 48 4 0 14 -38 18 -46 5z"/>
<path d="M5756 3643 c-3 -3 2 -12 12 -20 15 -13 15 -14 0 -9 -12 3 -16 -1 -15
-14 1 -10 5 -18 10 -17 5 1 12 -4 14 -10 6 -18 -25 -16 -43 2 -25 25 -63 19
-75 -12 -8 -22 -7 -30 6 -40 9 -6 23 -9 30 -7 16 7 85 -22 85 -35 0 -6 7 -8
16 -4 11 4 12 8 4 13 -14 8 14 40 35 40 17 0 24 20 18 52 -4 19 -13 27 -33 31
-15 4 -34 13 -43 21 -8 8 -17 12 -21 9z"/>
<path d="M5340 3569 c0 -17 -5 -20 -24 -17 -16 3 -27 0 -30 -9 -10 -25 -7 -33
14 -33 11 0 20 -4 20 -9 0 -5 7 -17 16 -26 14 -13 18 -14 25 -3 6 9 27 12 68
10 33 -1 62 2 66 8 3 5 20 7 38 5 18 -3 26 -3 20 1 -7 3 -13 16 -13 29 0 25
-26 41 -44 26 -7 -6 -29 -1 -61 15 -64 30 -95 31 -95 3z"/>
<path d="M5943 3540 c-3 -11 -9 -17 -14 -14 -5 3 -6 -2 -3 -10 7 -17 7 -18 44
-20 21 -1 25 4 28 32 3 29 1 32 -23 32 -18 0 -29 -6 -32 -20z"/>
<path d="M5560 3532 c0 -5 7 -9 15 -9 8 0 15 4 15 9 0 4 -7 8 -15 8 -8 0 -15
-4 -15 -8z"/>
<path d="M5860 3520 c0 -5 5 -10 11 -10 5 0 7 5 4 10 -3 6 -8 10 -11 10 -2 0
-4 -4 -4 -10z"/>
<path d="M5135 3490 c-3 -6 1 -7 9 -4 18 7 21 14 7 14 -6 0 -13 -4 -16 -10z"/>
<path d="M426 3465 c-7 -18 29 -21 40 -3 4 7 3 8 -4 4 -7 -4 -12 -2 -12 3 0
16 -17 13 -24 -4z"/>
<path d="M364 3436 c-3 -9 -13 -12 -27 -8 -21 5 -21 5 -5 -12 20 -20 33 -15
41 14 6 23 -1 27 -9 6z"/>
<path d="M5965 3420 c-11 -12 -15 -27 -11 -43 4 -19 0 -27 -20 -37 -17 -9 -23
-19 -18 -29 4 -9 9 -29 12 -46 2 -16 11 -38 20 -47 8 -10 12 -18 7 -18 -4 0
-2 -7 5 -15 7 -8 19 -15 26 -15 11 0 14 27 14 135 0 74 -4 135 -8 135 -5 0
-17 -9 -27 -20z"/>
<path d="M76 3415 c10 -8 24 -14 29 -14 6 0 1 6 -9 14 -11 8 -24 15 -30 15 -5
0 -1 -7 10 -15z"/>
<path d="M5780 3387 c0 -20 5 -24 30 -25 33 -1 36 4 16 31 -19 25 -46 22 -46
-6z"/>
<path d="M5275 3390 c3 -5 0 -10 -7 -11 -7 0 -4 -4 7 -9 25 -10 46 7 25 20
-20 13 -33 13 -25 0z"/>
<path d="M118 3385 c-7 -8 96 -95 113 -95 5 0 9 12 7 28 -2 16 -9 27 -18 27
-8 0 -22 8 -30 17 -16 19 -62 33 -72 23z"/>
<path d="M4 3367 c-4 -10 -1 -30 7 -43 10 -20 10 -29 1 -44 -7 -11 -12 -38
-12 -60 0 -39 1 -40 34 -40 39 0 83 -32 53 -38 -10 -2 -15 -8 -12 -13 4 -5 1
-9 -4 -9 -6 0 -11 4 -11 9 0 12 -49 20 -56 9 -14 -22 21 -36 109 -43 51 -4
100 -12 110 -17 24 -12 34 -3 17 17 -7 8 -8 15 -2 15 5 0 17 -10 26 -22 15
-23 16 -23 31 -3 8 11 13 25 11 32 -3 7 -1 13 4 13 5 0 11 -9 15 -19 8 -25 24
-31 55 -19 18 8 21 12 10 16 -8 3 -21 13 -28 23 -10 14 -18 16 -44 8 -43 -12
-65 -4 -83 31 -8 16 -25 35 -38 41 -12 7 -25 17 -29 23 -5 8 -8 7 -8 -1 0 -7
-6 -12 -12 -10 -7 1 -14 -8 -16 -20 -5 -32 -12 -29 -49 21 -22 30 -28 47 -22
57 8 11 13 10 29 -10 12 -14 26 -21 36 -17 27 10 11 38 -36 63 -25 13 -53 34
-62 46 -16 20 -17 21 -24 4z m209 -222 c-3 -9 -8 -14 -10 -11 -3 3 -2 9 2 15
9 16 15 13 8 -4z m-23 -9 c0 -3 -4 -8 -10 -11 -5 -3 -10 -1 -10 4 0 6 5 11 10
11 6 0 10 -2 10 -4z"/>
<path d="M5502 3369 c-47 -10 -48 -16 -6 -24 24 -4 39 -2 44 5 4 7 16 9 29 5
15 -4 21 -2 21 9 0 16 -30 18 -88 5z"/>
<path d="M5220 3355 c0 -8 7 -15 15 -15 8 0 15 7 15 15 0 8 -7 15 -15 15 -8 0
-15 -7 -15 -15z"/>
<path d="M4903 3293 c9 -9 19 -14 23 -11 10 10 -6 28 -24 28 -15 0 -15 -1 1
-17z"/>
<path d="M435 3260 c3 -5 13 -10 21 -10 8 0 14 5 14 10 0 6 -9 10 -21 10 -11
0 -17 -4 -14 -10z"/>
<path d="M250 3230 c0 -12 -7 -20 -17 -20 -13 0 -14 -3 -6 -11 6 -6 23 -11 37
-11 14 0 31 -7 37 -14 16 -19 29 -17 49 6 19 21 45 19 54 -6 3 -8 16 -14 28
-14 l22 0 -22 16 c-14 9 -21 22 -18 31 4 9 2 11 -6 7 -7 -5 -9 -2 -5 8 9 24
-4 30 -24 13 -16 -15 -44 -16 -81 -2 -44 17 -48 16 -48 -3z"/>
<path d="M460 3194 c0 -8 5 -12 10 -9 6 3 10 10 10 16 0 5 -4 9 -10 9 -5 0
-10 -7 -10 -16z"/>
<path d="M450 3113 c0 -14 19 -38 25 -32 8 8 -5 39 -16 39 -5 0 -9 -3 -9 -7z"/>
<path d="M500 3090 c-8 -5 -10 -10 -5 -10 6 0 3 -4 -5 -10 -23 -14 -4 -23 27
-13 32 11 45 43 16 43 -10 0 -25 -5 -33 -10z"/>
<path d="M224 3005 c0 -19 2 -35 6 -35 21 1 41 50 20 50 -6 0 -8 5 -5 10 3 6
0 10 -7 10 -9 0 -14 -12 -14 -35z"/>
<path d="M293 2993 c-22 -8 -14 -37 18 -68 28 -25 33 -27 43 -13 6 9 20 17 30
19 29 6 32 29 4 29 -23 1 -62 23 -53 31 6 6 -27 8 -42 2z"/>
<path d="M0 2862 c0 -107 2 -122 17 -122 9 0 25 -8 36 -17 19 -18 19 -17 14
29 -4 36 -2 48 9 52 8 3 13 2 10 -3 -3 -5 1 -14 9 -21 15 -13 20 -5 16 28 -4
25 29 11 69 -30 36 -38 43 -41 60 -30 16 10 20 10 21 0 0 -7 5 -3 11 10 11 22
42 30 52 13 3 -5 15 -7 25 -4 12 3 31 -6 51 -26 28 -26 35 -29 54 -19 13 7 16
13 8 16 -6 2 -12 8 -12 14 0 6 7 7 16 4 9 -3 12 -2 8 5 -3 6 -15 9 -25 6 -14
-4 -19 0 -19 15 0 26 -19 60 -30 53 -9 -6 -106 40 -115 54 -3 5 -14 7 -25 4
-11 -3 -17 -10 -14 -15 4 -6 -5 -8 -22 -6 -22 2 -28 -1 -29 -17 -1 -16 4 -21
24 -20 30 1 61 -11 61 -25 0 -5 -8 -14 -19 -19 -15 -8 -27 -4 -60 20 -28 20
-49 28 -62 24 -10 -4 -20 -2 -20 4 -1 6 -2 14 -3 19 -2 13 -30 46 -74 87 l-42
39 0 -122z m70 -37 c0 -15 -43 -12 -48 3 -3 10 4 13 22 10 15 -2 26 -7 26 -13z"/>
<path d="M180 2950 c0 -12 35 -31 44 -23 3 3 -2 12 -12 19 -20 16 -32 17 -32
4z"/>
<path d="M392 2868 c3 -7 19 -14 36 -16 25 -3 31 0 26 12 -7 19 -68 23 -62 4z"/>
<path d="M550 2840 c-9 -17 -7 -26 10 -50 12 -17 25 -28 29 -25 5 2 17 -2 27
-10 28 -21 54 -19 54 5 0 11 0 23 1 28 0 4 -8 9 -18 11 -10 2 -28 14 -40 28
-13 13 -23 21 -23 17 0 -3 -6 -1 -14 5 -12 10 -17 8 -26 -9z"/>
<path d="M0 2639 c0 -5 5 -7 10 -4 6 3 13 -1 16 -9 3 -9 11 -16 17 -16 5 0 2
9 -8 20 -20 22 -35 26 -35 9z"/>
<path d="M956 2577 c3 -10 9 -15 12 -12 3 3 0 11 -7 18 -10 9 -11 8 -5 -6z"/>
<path d="M0 2300 c0 -5 5 -10 10 -10 6 0 10 5 10 10 0 6 -4 10 -10 10 -5 0
-10 -4 -10 -10z"/>
<path d="M230 2300 c0 -5 7 -10 15 -10 8 0 15 5 15 10 0 6 -7 10 -15 10 -8 0
-15 -4 -15 -10z"/>
</g>
</svg>
